<svg width="50" height="50" viewBox="0 0 50 50" fill="none" xmlns="http://www.w3.org/2000/svg">
<g clip-path="url(#clip0)">
<path d="M25 18.0208C23.3038 18.0208 21.9238 16.892 21.9238 15.5045H18.9941C18.9941 18.0493 20.9293 20.1914 23.5352 20.7859V23.0469H26.4648V20.7859C29.0707 20.1914 31.0059 18.0493 31.0059 15.5045C31.0059 12.5016 28.3116 10.0586 25 10.0586C23.3038 10.0586 21.9238 8.92978 21.9238 7.54238C21.9238 6.15498 23.3038 5.02607 25 5.02607C26.6962 5.02607 28.0762 6.15488 28.0762 7.54238H31.0059C31.0059 4.99756 29.0707 2.85547 26.4648 2.26094V0H23.5352V2.26094C20.9293 2.85547 18.9941 4.99746 18.9941 7.54238C18.9941 10.5453 21.6884 12.9883 25 12.9883C26.6962 12.9883 28.0762 14.1171 28.0762 15.5045C28.0762 16.8919 26.6963 18.0208 25 18.0208Z" fill="white"/>
<path d="M48.529 24.4044C47.6223 23.535 46.43 23.0648 45.1752 23.0772C43.9191 23.0907 42.7385 23.5875 41.8479 24.4789L33.8587 32.5186H30.7232C30.9561 31.9587 31.0846 31.3448 31.0846 30.7014C31.0846 28.084 28.9563 25.9546 26.3402 25.9546H15.5586C12.7663 25.9546 10.1416 27.0424 8.16787 29.0176L0 37.3978V50H7.32139L14.8421 43.5486H36.7996L48.6139 31.2174C49.5215 30.303 50.0136 29.0905 49.9998 27.8014C49.9858 26.5069 49.4636 25.3004 48.529 24.4044ZM46.5297 29.1586L35.5492 40.619H13.7577L6.23701 47.0703H2.92969V38.5893L10.2466 31.082C11.6661 29.6646 13.5521 28.8841 15.5586 28.8841H26.3403C27.3409 28.8841 28.155 29.6993 28.155 30.7012C28.155 31.7032 27.341 32.5184 26.3403 32.5184H16.6838V35.4481H35.0777L43.9232 26.5465C44.6267 25.8426 45.7832 25.8302 46.5015 26.5189C46.8629 26.8654 47.0649 27.332 47.0703 27.8328C47.0756 28.3336 46.8836 28.8044 46.5297 29.1586Z" fill="white"/>
</g>
<defs>
<clipPath id="clip0">
<rect width="50" height="50" fill="white"/>
</clipPath>
</defs>
</svg>
