<svg width="50" height="50" viewBox="0 0 50 50" fill="none" xmlns="http://www.w3.org/2000/svg">
<path d="M50 16.5134V8.1249L25 0L0 8.1249V16.5134H3.03955V41.2109H0V50H50V41.2109H46.9604V16.5134H50ZM47.0703 44.1406V47.0703H2.92969V44.1406H47.0703ZM8.87451 22.3729V41.2109H5.96924V22.3729H8.87451ZM5.96924 19.4432V16.5135H8.87451V19.4433H5.96924V19.4432ZM11.8042 41.2109V16.5134H38.147V41.2109H11.8042ZM44.0308 22.3729V41.2109H41.0767V22.3729H44.0308ZM41.0767 19.4432V16.5134H44.0308V19.4431H41.0767V19.4432ZM2.92969 13.5837V10.2533L25 3.08057L47.0703 10.2533V13.5837H2.92969Z" fill="white"/>
<path d="M21.1592 7.7243H28.8413V10.654H21.1592V7.7243Z" fill="white"/>
<path d="M25.0001 23.8423C26.2365 23.8423 27.2425 24.6404 27.2425 25.6214H30.1722C30.1722 23.4881 28.6057 21.6815 26.4649 21.1049V19.4756H23.5353V21.1049C21.3945 21.6814 19.8281 23.4881 19.8281 25.6214C19.8281 28.2178 22.1482 30.3301 25.0001 30.3301C26.2365 30.3301 27.2425 31.1282 27.2425 32.1091C27.2425 33.0901 26.2365 33.8882 25.0001 33.8882C23.7637 33.8882 22.7578 33.0902 22.7578 32.1091H19.8281C19.8281 34.2425 21.3945 36.0491 23.5353 36.6256V38.2549H26.4649V36.6256C28.6057 36.0492 30.1722 34.2425 30.1722 32.1091C30.1722 29.5128 27.852 27.4005 25.0001 27.4005C23.7637 27.4005 22.7578 26.6024 22.7578 25.6214C22.7578 24.6405 23.7637 23.8423 25.0001 23.8423Z" fill="white"/>
</svg>
