<svg width="50" height="50" viewBox="0 0 50 50" fill="none" xmlns="http://www.w3.org/2000/svg">
<path d="M47.9185 30.7374C47.0228 29.5635 45.872 28.5952 44.5744 27.9066C45.2677 26.722 45.6653 25.3442 45.6653 23.8755V20.12C45.6653 15.7044 42.0718 12.112 37.6548 12.112C36.0693 12.112 34.5579 12.5825 33.2826 13.4099V5.85166C33.2825 2.625 30.6575 0 27.431 0H14.1959V5.91084C14.1959 7.89297 15.1865 9.64805 16.6986 10.707V13.3977C15.4273 12.5778 13.9229 12.112 12.3453 12.112C7.92832 12.112 4.33477 15.7044 4.33477 20.12V23.8755C4.33477 25.3443 4.73242 26.722 5.42568 27.9066C4.12803 28.5951 2.97725 29.5635 2.08164 30.7373C0.719824 32.5222 0 34.6547 0 36.9045V50H50V36.9045C50 34.6547 49.2802 32.5222 47.9185 30.7374ZM17.1256 2.92969H27.4309C29.042 2.92969 30.3528 4.24043 30.3528 5.85166V8.83281H20.0476C18.4364 8.83281 17.1256 7.52207 17.1256 5.91084V2.92969ZM30.3528 11.7625V15.7312C30.3528 18.6864 27.9474 21.0907 24.9906 21.0907C22.0339 21.0907 19.6283 18.6864 19.6283 15.7312V11.7476C19.7668 11.7574 19.9066 11.7624 20.0476 11.7624H30.3528V11.7625ZM10.9032 47.0703H2.92969V36.9045C2.92969 33.9556 4.74678 31.2983 7.43184 30.196C8.42832 30.9719 9.6123 31.5179 10.9033 31.7534V47.0703H10.9032ZM10.9032 28.5214V28.7456C8.80176 28.1229 7.26436 26.1753 7.26436 23.8756V20.1201C7.26436 17.3199 9.54365 15.0418 12.3453 15.0418C14.4736 15.0418 16.3915 16.3741 17.1258 18.3598C17.3485 19.024 17.6532 19.6511 18.0279 20.2287C14.0005 20.8369 10.9032 24.3239 10.9032 28.5214ZM23.5258 47.0703H13.8329V28.5214C13.8329 25.8189 15.8053 23.569 18.3847 23.1387C18.4189 24.1612 18.5076 25.3831 18.7009 26.7089C19.3751 31.3348 21.0389 35.1531 23.5258 37.8V47.0703ZM21.3226 23.1645C22.4291 23.7123 23.6745 24.0205 24.9907 24.0205C26.3084 24.0205 27.5552 23.7116 28.6627 23.1626C28.5457 26.2841 27.8734 31.376 24.9911 35.018C22.1159 31.3808 21.4421 26.2836 21.3226 23.1645ZM36.1483 47.0703H26.4555V37.8C28.9425 35.1527 30.6063 31.3317 31.2805 26.7014C31.473 25.3791 31.5618 24.1601 31.5963 23.1386C34.1758 23.5688 36.1483 25.8188 36.1483 28.5214V47.0703ZM31.9532 20.2286C32.3247 19.6559 32.6274 19.0347 32.8496 18.3768L32.8656 18.3826C33.5936 16.3843 35.5181 15.0417 37.6547 15.0417C40.4563 15.0417 42.7355 17.3198 42.7355 20.12V23.8755C42.7355 26.182 41.1891 28.1344 39.078 28.751V28.5213C39.078 24.3239 35.9808 20.8369 31.9532 20.2286ZM47.0703 47.0703H39.078V31.7569C40.3763 31.5232 41.5669 30.9757 42.5683 30.1961C45.2532 31.2983 47.0703 33.9557 47.0703 36.9045V47.0703Z" fill="white"/>
</svg>
