<svg width="115" height="127" viewBox="0 0 115 127" fill="none" xmlns="http://www.w3.org/2000/svg">
<path d="M81.499 55.0003L82.4903 55.1314L81.499 55.0003ZM49.4235 121.956C49.4856 122.505 49.9808 122.899 50.5296 122.837L59.4725 121.825C60.0213 121.763 60.4158 121.268 60.3537 120.719C60.2915 120.17 59.7963 119.776 59.2475 119.838L51.2983 120.738L50.3986 112.788C50.3365 112.24 49.8412 111.845 49.2925 111.907C48.7437 111.969 48.3492 112.464 48.4113 113.013L49.4235 121.956ZM58.281 1.22599C57.6869 2.03044 57.6867 2.03027 57.6866 2.03018C57.6867 2.03025 57.6867 2.03023 57.6868 2.03038C57.6872 2.03067 57.688 2.03126 57.6893 2.03217C57.6917 2.03398 57.6958 2.03703 57.7015 2.04131C57.7129 2.04987 57.7309 2.06337 57.7551 2.08176C57.8035 2.11855 57.877 2.17495 57.9738 2.25071C58.1674 2.40225 58.454 2.63123 58.8191 2.93582C59.5495 3.5451 60.5935 4.4564 61.8351 5.65505C64.3195 8.05351 67.5887 11.596 70.7208 16.1649C76.9852 25.3031 82.6732 38.5014 80.5076 54.8691L82.4903 55.1314C84.7398 38.1294 78.8188 24.4406 72.3704 15.0341C69.1461 10.3306 65.783 6.68636 63.2242 4.21616C61.9442 2.98048 60.8638 2.03697 60.1003 1.40003C59.7184 1.08151 59.4157 0.839524 59.2066 0.675872C59.1021 0.59404 59.021 0.531782 58.9651 0.489322C58.9372 0.468092 58.9155 0.451808 58.9004 0.440503C58.8929 0.434849 58.887 0.430439 58.8827 0.427279C58.8806 0.425697 58.8789 0.424428 58.8776 0.423472C58.8769 0.422994 58.8763 0.422509 58.876 0.422271C58.8754 0.421866 58.875 0.421539 58.281 1.22599ZM80.5076 54.8691C78.3253 71.3633 70.6293 87.9406 63.4357 100.437C59.8444 106.675 56.39 111.877 53.8343 115.517C52.5567 117.337 51.5043 118.766 50.7725 119.739C50.4066 120.225 50.1209 120.597 49.9274 120.847C49.8306 120.972 49.7568 121.066 49.7076 121.129C49.683 121.16 49.6645 121.183 49.6523 121.199C49.6462 121.206 49.6417 121.212 49.6388 121.216C49.6374 121.218 49.6363 121.219 49.6357 121.22C49.6354 121.22 49.6352 121.22 49.635 121.22C49.6349 121.221 49.635 121.221 50.4171 121.844C51.1993 122.467 51.1995 122.466 51.1998 122.466C51.2 122.466 51.2005 122.465 51.201 122.465C51.2019 122.463 51.2033 122.462 51.2051 122.459C51.2087 122.455 51.2138 122.448 51.2206 122.44C51.2341 122.423 51.2539 122.398 51.2799 122.365C51.3318 122.299 51.4084 122.201 51.508 122.072C51.7072 121.815 51.9987 121.436 52.3706 120.941C53.1144 119.953 54.1798 118.506 55.4712 116.667C58.0536 112.988 61.5419 107.735 65.1691 101.434C72.4127 88.8513 80.2576 72.007 82.4903 55.1314L80.5076 54.8691Z" fill="#FFDE8A"/>
</svg>
