<svg width="311" height="467" viewBox="0 0 311 467" fill="none" xmlns="http://www.w3.org/2000/svg">
<path d="M2.49999 244.5L4.99997 244.5L2.49999 244.5ZM309.914 453.562C311.053 452.781 311.343 451.225 310.562 450.086L297.834 431.532C297.053 430.393 295.497 430.103 294.358 430.884C293.22 431.665 292.93 433.221 293.711 434.36L305.024 450.853L288.531 462.166C287.393 462.947 287.103 464.503 287.884 465.642C288.665 466.78 290.221 467.07 291.36 466.289L309.914 453.562ZM203 2.49924C201.958 0.227028 201.956 0.227695 201.954 0.22871C201.952 0.229518 201.949 0.230887 201.946 0.232501C201.939 0.235731 201.929 0.240364 201.916 0.246398C201.89 0.258466 201.851 0.276143 201.801 0.299409C201.701 0.345943 201.554 0.414843 201.36 0.505978C200.973 0.688245 200.402 0.959464 199.66 1.3186C198.175 2.03685 196.004 3.10685 193.245 4.52032C187.727 7.34707 179.855 11.5486 170.412 17.0588C151.533 28.0758 126.348 44.3409 101.15 65.3284C50.8575 107.218 -1.5283e-05 168.358 8.13423e-07 244.5L4.99997 244.5C5 170.642 54.3927 110.781 104.35 69.1703C129.278 48.4077 154.218 32.2977 172.932 21.3773C182.286 15.9187 190.078 11.7608 195.525 8.97036C198.248 7.57523 200.385 6.52218 201.837 5.81954C202.564 5.46822 203.119 5.20453 203.49 5.02949C203.676 4.94198 203.816 4.87663 203.909 4.83358C203.955 4.81206 203.99 4.79611 204.012 4.78575C204.023 4.78057 204.031 4.77679 204.037 4.7744C204.039 4.77321 204.041 4.77248 204.042 4.77188C204.043 4.7715 204.043 4.77146 203 2.49924ZM8.13423e-07 244.5C-1.20847e-05 282.936 19.6223 315.242 48.6183 341.964C77.5995 368.672 116.137 389.993 154.51 406.546C192.907 423.109 231.281 434.958 260.04 442.665C274.424 446.52 286.414 449.341 294.811 451.199C299.01 452.128 302.312 452.817 304.567 453.274C305.694 453.502 306.56 453.672 307.146 453.786C307.438 453.843 307.661 453.886 307.811 453.914C307.886 453.928 307.943 453.939 307.982 453.946C308.001 453.95 308.016 453.953 308.026 453.955C308.031 453.956 308.035 453.956 308.038 453.957C308.04 453.957 308.042 453.958 308.5 451.5C308.958 449.042 308.957 449.042 308.955 449.042C308.953 449.042 308.95 449.041 308.946 449.04C308.938 449.039 308.924 449.036 308.907 449.033C308.871 449.026 308.817 449.016 308.745 449.002C308.601 448.975 308.385 448.933 308.099 448.878C307.526 448.767 306.674 448.599 305.56 448.373C303.332 447.922 300.06 447.239 295.892 446.317C287.555 444.472 275.638 441.668 261.335 437.835C232.719 430.167 194.593 418.391 156.49 401.955C118.363 385.508 80.4004 364.454 52.0067 338.287C23.6277 312.134 4.99998 281.065 4.99997 244.5L8.13423e-07 244.5Z" fill="#FFDE8A"/>
</svg>
