<svg width="48" height="54" viewBox="0 0 48 54" fill="none" xmlns="http://www.w3.org/2000/svg">
<line y1="-1" x2="45" y2="-1" transform="matrix(0 -1 -1 0 0 45)" stroke="#76FFFF" stroke-width="2"/>
<path d="M47.7071 45.2929C48.0976 45.6834 48.0976 46.3166 47.7071 46.7071L41.3431 53.0711C40.9526 53.4616 40.3195 53.4616 39.9289 53.0711C39.5384 52.6805 39.5384 52.0474 39.9289 51.6569L45.5858 46L39.9289 40.3431C39.5384 39.9526 39.5384 39.3195 39.9289 38.9289C40.3195 38.5384 40.9526 38.5384 41.3431 38.9289L47.7071 45.2929ZM0 45L47 45V47L0 47L0 45Z" fill="#76FFFF"/>
</svg>
