<svg width="12" height="16" viewBox="0 0 12 16" fill="none" xmlns="http://www.w3.org/2000/svg">
<path d="M10.8492 8.39396C10.4861 7.91329 9.93813 7.58314 9.20538 7.4037C10.1385 6.91647 10.5486 6.08952 10.436 4.92272C10.3983 4.49962 10.2841 4.13292 10.093 3.8221C9.90181 3.51121 9.64378 3.26128 9.31793 3.07221C8.99235 2.8829 8.63825 2.73879 8.25644 2.63944C7.87454 2.54009 7.43608 2.46795 6.94136 2.42312V0H5.49494V2.35579C5.24447 2.35579 4.8625 2.36219 4.34906 2.37503V0H2.90245V2.42312C2.69574 2.42955 2.39207 2.43282 1.99131 2.43282L0 2.42312V4.00009H1.04257C1.5185 4.00009 1.79717 4.2181 1.87856 4.65393V7.41364C1.94127 7.41364 1.99131 7.41694 2.02892 7.42334H1.87856V11.2886C1.82852 11.6155 1.64695 11.779 1.3338 11.779H0.291298L6.57641e-05 13.5387H1.87873C1.99773 13.5387 2.16983 13.5403 2.39536 13.5432C2.62076 13.5465 2.78976 13.5481 2.90251 13.5481V16H4.34936V13.5769C4.6123 13.5835 4.99427 13.5866 5.49524 13.5866V16H6.94169V13.5481C7.45529 13.5225 7.91083 13.4747 8.3083 13.4039C8.70596 13.3331 9.08648 13.2227 9.4496 13.072C9.81269 12.9215 10.1164 12.7338 10.3605 12.5095C10.6049 12.2853 10.8066 11.9999 10.9666 11.6537C11.126 11.3075 11.2279 10.9068 11.2716 10.4516C11.3534 9.56079 11.2124 8.87482 10.8492 8.39396ZM4.37719 4.10557C4.42105 4.10557 4.54472 4.10396 4.74824 4.10072C4.95186 4.09742 5.12087 4.09426 5.2555 4.09103C5.39016 4.08786 5.57176 4.09587 5.80042 4.11511C6.02898 4.13434 6.22151 4.16003 6.37801 4.19203C6.53452 4.22402 6.70688 4.27693 6.89458 4.35065C7.0826 4.42431 7.23279 4.5141 7.34538 4.61985C7.45819 4.7256 7.55367 4.86028 7.6318 5.02376C7.71017 5.1872 7.74932 5.37469 7.74932 5.58619C7.74932 5.7657 7.72119 5.92921 7.6649 6.07672C7.60871 6.22414 7.52396 6.34757 7.41137 6.44692C7.29876 6.54631 7.18268 6.63293 7.06368 6.70658C6.94482 6.78024 6.79282 6.83958 6.60815 6.88441C6.42351 6.9293 6.26227 6.96456 6.12458 6.99016C5.9868 7.01582 5.81463 7.0335 5.60795 7.04307C5.40124 7.05263 5.24464 7.05917 5.13824 7.06233C5.03174 7.0655 4.88619 7.0655 4.70139 7.06233C4.51656 7.05917 4.40868 7.05748 4.37729 7.05748V4.10554H4.37719V4.10557ZM8.32718 10.6536C8.26753 10.8011 8.19094 10.9294 8.09708 11.0385C8.00305 11.1473 7.87931 11.2435 7.72596 11.3267C7.57265 11.4102 7.42378 11.4774 7.27987 11.5287C7.13577 11.5802 6.96193 11.6248 6.7586 11.6634C6.55482 11.7019 6.37647 11.729 6.22289 11.7451C6.06954 11.7612 5.88645 11.7739 5.67346 11.7836C5.46063 11.7931 5.29458 11.7979 5.17565 11.7979C5.05665 11.7979 4.90633 11.7962 4.72472 11.7931C4.54301 11.7901 4.42727 11.7884 4.37713 11.7884V8.53827C4.42717 8.53827 4.57591 8.53514 4.82332 8.5286C5.07076 8.52214 5.2726 8.51914 5.42917 8.51914C5.58571 8.51914 5.80183 8.52861 6.07747 8.54797C6.35285 8.56707 6.58456 8.59579 6.77258 8.63426C6.96038 8.67278 7.16531 8.73199 7.38778 8.81221C7.61002 8.8923 7.79015 8.99004 7.92797 9.10542C8.06576 9.22101 8.18153 9.36822 8.27543 9.54776C8.36956 9.7272 8.4165 9.93237 8.4165 10.1632C8.41647 10.3429 8.38676 10.5061 8.32718 10.6536Z" fill="white"/>
</svg>
