<svg width="12" height="16" viewBox="0 0 12 16" fill="none" xmlns="http://www.w3.org/2000/svg">
<path d="M11.2652 8.39396C10.9021 7.91329 10.3541 7.58314 9.6214 7.4037C10.5545 6.91647 10.9646 6.08952 10.852 4.92272C10.8144 4.49962 10.7001 4.13292 10.509 3.8221C10.3178 3.51121 10.0598 3.26128 9.73395 3.07221C9.40837 2.8829 9.05427 2.73879 8.67246 2.63944C8.29056 2.54009 7.8521 2.46795 7.35738 2.42312V0H5.91096V2.35579C5.66049 2.35579 5.27852 2.36219 4.76508 2.37503V0H3.31846V2.42312C3.11175 2.42955 2.80808 2.43282 2.40733 2.43282L0.416016 2.42312V4.00009H1.45859C1.93452 4.00009 2.21318 4.2181 2.29458 4.65393V7.41364C2.35729 7.41364 2.40733 7.41694 2.44493 7.42334H2.29458V11.2886C2.24454 11.6155 2.06296 11.779 1.74982 11.779H0.707313L0.416081 13.5387H2.29474C2.41374 13.5387 2.58584 13.5403 2.81137 13.5432C3.03677 13.5465 3.20578 13.5481 3.31853 13.5481V16H4.76538V13.5769C5.02831 13.5835 5.41028 13.5866 5.91125 13.5866V16H7.35771V13.5481C7.87131 13.5225 8.32685 13.4747 8.72431 13.4039C9.12197 13.3331 9.5025 13.2227 9.86562 13.072C10.2287 12.9215 10.5324 12.7338 10.7766 12.5095C11.0209 12.2853 11.2226 11.9999 11.3826 11.6537C11.542 11.3075 11.6439 10.9068 11.6876 10.4516C11.7694 9.56079 11.6284 8.87482 11.2652 8.39396ZM4.79321 4.10557C4.83707 4.10557 4.96074 4.10396 5.16426 4.10072C5.36788 4.09742 5.53688 4.09426 5.67151 4.09103C5.80617 4.08786 5.98778 4.09587 6.21644 4.11511C6.44499 4.13434 6.63752 4.16003 6.79403 4.19203C6.95053 4.22402 7.1229 4.27693 7.31059 4.35065C7.49862 4.42431 7.64881 4.5141 7.76139 4.61985C7.87421 4.7256 7.96968 4.86028 8.04782 5.02376C8.12619 5.1872 8.16534 5.37469 8.16534 5.58619C8.16534 5.7657 8.13721 5.92921 8.08092 6.07672C8.02472 6.22414 7.93997 6.34757 7.82739 6.44692C7.71477 6.54631 7.5987 6.63293 7.4797 6.70658C7.36083 6.78024 7.20883 6.83958 7.02417 6.88441C6.83953 6.9293 6.67829 6.96456 6.5406 6.99016C6.40281 7.01582 6.23065 7.0335 6.02397 7.04307C5.81726 7.05263 5.66065 7.05917 5.55426 7.06233C5.44776 7.0655 5.30221 7.0655 5.11741 7.06233C4.93258 7.05917 4.8247 7.05748 4.79331 7.05748V4.10554H4.79321V4.10557ZM8.7432 10.6536C8.68355 10.8011 8.60696 10.9294 8.51309 11.0385C8.41906 11.1473 8.29533 11.2435 8.14198 11.3267C7.98867 11.4102 7.83979 11.4774 7.69589 11.5287C7.55178 11.5802 7.37794 11.6248 7.17462 11.6634C6.97083 11.7019 6.79248 11.729 6.63891 11.7451C6.48556 11.7612 6.30247 11.7739 6.08947 11.7836C5.87664 11.7931 5.7106 11.7979 5.59166 11.7979C5.47266 11.7979 5.32234 11.7962 5.14073 11.7931C4.95903 11.7901 4.84328 11.7884 4.79314 11.7884V8.53827C4.84318 8.53827 4.99193 8.53514 5.23934 8.5286C5.48678 8.52214 5.68862 8.51914 5.84519 8.51914C6.00173 8.51914 6.21785 8.52861 6.49349 8.54797C6.76886 8.56707 7.00058 8.59579 7.1886 8.63426C7.37639 8.67278 7.58133 8.73199 7.8038 8.81221C8.02604 8.8923 8.20617 8.99004 8.34399 9.10542C8.48177 9.22101 8.59755 9.36822 8.69144 9.54776C8.78557 9.7272 8.83252 9.93237 8.83252 10.1632C8.83249 10.3429 8.80278 10.5061 8.7432 10.6536Z" fill="white"/>
</svg>
