<svg width="45" height="60" viewBox="0 0 45 60" fill="none" xmlns="http://www.w3.org/2000/svg">
<path d="M42.9831 31.4773C41.5444 29.6749 39.3735 28.4368 36.4705 27.7639C40.1673 25.9368 41.792 22.8357 41.3459 18.4602C41.1968 16.8736 40.7443 15.4985 39.9872 14.3329C39.2296 13.167 38.2073 12.2298 36.9164 11.5208C35.6265 10.8109 34.2236 10.2705 32.7109 9.89789C31.1979 9.52532 29.4607 9.25479 27.5007 9.08669V0H21.7702V8.83423C20.7779 8.83423 19.2646 8.85823 17.2304 8.90635V0H11.4991V9.08669C10.6801 9.11082 9.47705 9.12307 7.88931 9.12307L0 9.08669V15.0003H4.13053C6.01611 15.0003 7.12014 15.8179 7.44261 17.4522V27.8011C7.69105 27.8011 7.88931 27.8135 8.03829 27.8375H7.44261V42.3323C7.24436 43.558 6.52498 44.1714 5.28435 44.1714H1.15408L0.000260548 50.7702H7.44326C7.91472 50.7702 8.59656 50.7763 9.49008 50.7871C10.3831 50.7993 11.0527 50.8053 11.4994 50.8053V60H17.2316V50.9134C18.2733 50.9381 19.7866 50.9498 21.7714 50.9498V60H27.502V50.8053C29.5369 50.7093 31.3416 50.53 32.9163 50.2647C34.4918 49.9993 35.9994 49.5853 37.438 49.02C38.8765 48.4555 40.0796 47.7519 41.047 46.9105C42.015 46.0699 42.8144 44.9996 43.4481 43.7013C44.0798 42.403 44.4835 40.9006 44.6566 39.1935C44.9805 35.853 44.422 33.2806 42.9831 31.4773ZM17.3419 15.3959C17.5156 15.3959 18.0056 15.3898 18.8119 15.3777C19.6186 15.3653 20.2882 15.3535 20.8216 15.3413C21.3551 15.3295 22.0746 15.3595 22.9805 15.4316C23.886 15.5038 24.6488 15.6001 25.2688 15.7201C25.8889 15.8401 26.5718 16.0385 27.3154 16.315C28.0603 16.5912 28.6553 16.9279 29.1014 17.3244C29.5483 17.721 29.9266 18.2261 30.2362 18.8391C30.5467 19.452 30.7018 20.1551 30.7018 20.9482C30.7018 21.6214 30.5903 22.2345 30.3673 22.7877C30.1447 23.3405 29.8089 23.8034 29.3629 24.176C28.9167 24.5487 28.4568 24.8735 27.9854 25.1497C27.5144 25.4259 26.9122 25.6484 26.1806 25.8165C25.4491 25.9849 24.8103 26.1171 24.2648 26.2131C23.7189 26.3093 23.0368 26.3756 22.218 26.4115C21.399 26.4474 20.7785 26.4719 20.357 26.4837C19.9351 26.4956 19.3584 26.4956 18.6263 26.4837C17.894 26.4719 17.4666 26.4656 17.3422 26.4656V15.3958H17.3419V15.3959ZM32.9912 39.9511C32.7548 40.5043 32.4514 40.9854 32.0795 41.3943C31.707 41.8022 31.2168 42.1632 30.6092 42.4753C30.0018 42.7882 29.412 43.0402 28.8419 43.2325C28.271 43.4256 27.5822 43.593 26.7767 43.7377C25.9693 43.8821 25.2627 43.9836 24.6542 44.0441C24.0467 44.1043 23.3213 44.1522 22.4775 44.1886C21.6343 44.2239 20.9764 44.2423 20.5052 44.2423C20.0338 44.2423 19.4382 44.2357 18.7187 44.2239C17.9988 44.2127 17.5402 44.2066 17.3416 44.2066V32.0185C17.5398 32.0185 18.1291 32.0068 19.1093 31.9823C20.0897 31.958 20.8893 31.9468 21.5097 31.9468C22.1298 31.9468 22.9861 31.9823 24.0781 32.0549C25.1691 32.1265 26.0871 32.2342 26.8321 32.3785C27.5761 32.5229 28.388 32.745 29.2694 33.0458C30.1499 33.3461 30.8635 33.7126 31.4095 34.1453C31.9554 34.5788 32.4141 35.1308 32.7861 35.8041C33.159 36.477 33.3451 37.2464 33.3451 38.112C33.3449 38.7858 33.2272 39.3978 32.9912 39.9511Z" fill="white"/>
</svg>
