<svg width="27" height="35" viewBox="0 0 27 35" fill="none" xmlns="http://www.w3.org/2000/svg">
<path d="M25.0735 18.3618C24.2343 17.3103 22.9679 16.5881 21.2744 16.1956C23.431 15.1298 24.3787 13.3208 24.1185 10.7685C24.0315 9.84291 23.7675 9.04077 23.3259 8.36084C22.884 7.68078 22.2876 7.13405 21.5346 6.72046C20.7821 6.30635 19.9638 5.9911 19.0814 5.77377C18.1988 5.55644 17.1854 5.39863 16.0421 5.30057V0H12.6993V5.1533C12.1204 5.1533 11.2377 5.1673 10.0511 5.19537V0H6.70781V5.30057C6.23008 5.31464 5.52828 5.32179 4.6021 5.32179L0 5.30057V8.7502H2.40947C3.5094 8.7502 4.15341 9.22708 4.34152 10.1805V16.2173C4.48645 16.2173 4.6021 16.2245 4.689 16.2385H4.34152V24.6938C4.22587 25.4088 3.80624 25.7667 3.08254 25.7667H0.673214L0.000151987 29.616H4.3419C4.61692 29.616 5.01466 29.6195 5.53588 29.6258C6.0568 29.6329 6.44739 29.6364 6.70796 29.6364V35H10.0518V29.6995C10.6594 29.7139 11.5422 29.7207 12.7 29.7207V35H16.0429V29.6364C17.2298 29.5804 18.2826 29.4758 19.2012 29.321C20.1202 29.1663 20.9997 28.9248 21.8389 28.595C22.678 28.2657 23.3798 27.8553 23.9441 27.3645C24.5087 26.8741 24.9751 26.2498 25.3448 25.4924C25.7132 24.7351 25.9487 23.8587 26.0497 22.8629C26.2386 20.9142 25.9128 19.4137 25.0735 18.3618ZM10.1161 8.98094C10.2174 8.98094 10.5033 8.97741 10.9736 8.97034C11.4442 8.96312 11.8348 8.95619 12.1459 8.94912C12.4571 8.94219 12.8768 8.95973 13.4053 9.00179C13.9335 9.04386 14.3784 9.10007 14.7401 9.17006C15.1018 9.24005 15.5002 9.35579 15.934 9.51706C16.3685 9.67818 16.7156 9.87459 16.9758 10.1059C17.2365 10.3372 17.4572 10.6319 17.6378 10.9895C17.8189 11.347 17.9094 11.7571 17.9094 12.2198C17.9094 12.6125 17.8444 12.9701 17.7143 13.2928C17.5844 13.6153 17.3885 13.8853 17.1283 14.1026C16.8681 14.32 16.5998 14.5095 16.3248 14.6707C16.0501 14.8318 15.6988 14.9616 15.272 15.0596C14.8453 15.1578 14.4727 15.235 14.1545 15.291C13.836 15.3471 13.4381 15.3858 12.9605 15.4067C12.4827 15.4276 12.1208 15.4419 11.8749 15.4489C11.6288 15.4558 11.2924 15.4558 10.8653 15.4489C10.4382 15.4419 10.1888 15.4382 10.1163 15.4382V8.98087H10.1161V8.98094ZM19.2448 23.3048C19.107 23.6275 18.93 23.9081 18.7131 24.1467C18.4957 24.3846 18.2098 24.5952 17.8554 24.7772C17.5011 24.9598 17.157 25.1068 16.8244 25.219C16.4914 25.3316 16.0896 25.4292 15.6197 25.5137C15.1488 25.5979 14.7366 25.6571 14.3816 25.6924C14.0272 25.7275 13.6041 25.7555 13.1119 25.7767C12.62 25.7973 12.2362 25.808 11.9614 25.808C11.6864 25.808 11.339 25.8042 10.9192 25.7973C10.4993 25.7907 10.2318 25.7872 10.1159 25.7872V18.6775C10.2316 18.6775 10.5753 18.6706 11.1471 18.6563C11.719 18.6422 12.1854 18.6356 12.5473 18.6356C12.9091 18.6356 13.4085 18.6563 14.0456 18.6987C14.682 18.7405 15.2175 18.8033 15.652 18.8874C16.086 18.9717 16.5597 19.1012 17.0738 19.2767C17.5874 19.4519 18.0037 19.6657 18.3222 19.9181C18.6407 20.1709 18.9082 20.493 19.1252 20.8857C19.3428 21.2782 19.4513 21.7271 19.4513 22.232C19.4512 22.625 19.3825 22.9821 19.2448 23.3048Z" fill="white"/>
</svg>
