<svg width="13" height="10" viewBox="0 0 13 10" fill="none" xmlns="http://www.w3.org/2000/svg">
<path d="M11.3196 0.993454C11.1464 0.998615 10.982 1.071 10.8612 1.19528L3.99924 8.05726L1.80393 5.86194C1.7425 5.79796 1.66892 5.74688 1.5875 5.71169C1.50608 5.6765 1.41846 5.65791 1.32977 5.65701C1.24107 5.6561 1.15309 5.67291 1.07097 5.70643C0.988854 5.73996 0.914251 5.78953 0.851532 5.85225C0.788813 5.91497 0.739238 5.98958 0.705712 6.07169C0.672186 6.15381 0.655382 6.24179 0.656285 6.33049C0.657187 6.41918 0.675777 6.5068 0.710967 6.58822C0.746157 6.66964 0.797239 6.74322 0.861221 6.80465L3.52789 9.47132C3.65292 9.5963 3.82246 9.6665 3.99924 9.6665C4.17602 9.6665 4.34557 9.5963 4.4706 9.47132L11.8039 2.13799C11.9003 2.04434 11.9661 1.92378 11.9927 1.7921C12.0193 1.66042 12.0056 1.52377 11.9532 1.40004C11.9009 1.27632 11.8123 1.1713 11.6993 1.09875C11.5862 1.02619 11.4538 0.989494 11.3196 0.993454Z" fill="white"/>
</svg>
