<svg width="62" height="62" viewBox="0 0 62 62" fill="none" xmlns="http://www.w3.org/2000/svg">
<path d="M31 0C13.9067 0 0 13.9067 0 31C0 48.0933 13.9067 62 31 62C48.0933 62 62 48.0933 62 31C62 13.9067 48.0933 0 31 0ZM31 4.65C45.5803 4.65 57.35 16.4198 57.35 31C57.35 45.5802 45.5803 57.35 31 57.35C16.4197 57.35 4.65 45.5802 4.65 31C4.65 16.4198 16.4197 4.65 31 4.65ZM42.5796 21.6788C41.9758 21.6964 41.4025 21.9483 40.9812 22.3812L27.125 36.2373L21.0188 30.1312C20.8046 29.908 20.548 29.7299 20.2641 29.6072C19.9801 29.4844 19.6745 29.4196 19.3652 29.4165C19.0559 29.4133 18.7491 29.4719 18.4627 29.5888C18.1763 29.7058 17.9161 29.8787 17.6974 30.0974C17.4787 30.3161 17.3058 30.5763 17.1888 30.8627C17.0719 31.1491 17.0133 31.4559 17.0165 31.7652C17.0196 32.0745 17.0844 32.3801 17.2072 32.6641C17.3299 32.948 17.508 33.2046 17.7312 33.4188L25.4812 41.1688C25.9172 41.6047 26.5085 41.8496 27.125 41.8496C27.7415 41.8496 28.3328 41.6047 28.7688 41.1688L44.2688 25.6688C44.6043 25.3422 44.8333 24.9219 44.9258 24.4629C45.0184 24.0039 44.9703 23.5277 44.7878 23.0965C44.6052 22.6654 44.2968 22.2994 43.9028 22.0464C43.5088 21.7935 43.0476 21.6653 42.5796 21.6788Z" fill="#98FEFE"/>
</svg>
