<svg width="1509" height="819" viewBox="0 0 1509 819" fill="none" xmlns="http://www.w3.org/2000/svg">
<path opacity="0.22" d="M203.244 528.276C197.655 554.83 171.592 571.857 145.044 566.267C118.497 560.677 101.473 534.608 107.062 508.054C112.651 481.5 138.714 464.472 165.262 470.062C191.809 475.653 208.833 501.693 203.244 528.276Z" fill="#CDF8F4"/>
<path d="M155.468 568.765C151.99 568.765 148.482 568.394 145.003 567.681C117.828 561.977 100.377 535.194 106.08 508.013C111.783 480.831 138.559 463.376 165.734 469.08C192.909 474.785 210.36 501.567 204.657 528.748C201.891 541.926 194.164 553.22 182.9 560.579C174.602 565.97 165.135 568.765 155.468 568.765ZM155.354 470.449C133.169 470.449 113.209 485.965 108.475 508.526C103.029 534.396 119.653 559.837 145.488 565.285C158.006 567.909 170.81 565.513 181.531 558.525C192.253 551.537 199.61 540.785 202.233 528.264C207.68 502.394 191.055 476.952 165.221 471.505C161.913 470.763 158.605 470.449 155.354 470.449Z" fill="#CDF8F4"/>
<path d="M154.166 527.592L157.018 521.061C157.189 520.69 157.531 520.405 157.93 520.319L163.234 519.207C163.747 519.093 164.147 518.665 164.232 518.152L164.717 515.128C164.859 514.244 164.061 513.503 163.177 513.674L159.955 514.358L165.629 501.352C165.971 500.582 165.487 499.698 164.66 499.584L154.736 498.015C154.166 497.929 153.596 498.215 153.368 498.757L145.127 516.982C144.956 517.353 144.614 517.61 144.214 517.695L139.538 518.693C139.025 518.808 138.625 519.235 138.54 519.749L137 524.74L142.104 523.656L137.912 532.926C137.57 533.696 138.055 534.58 138.882 534.723L168.823 539.458C169.365 539.543 169.878 539.286 170.135 538.802L172.815 533.896C173.243 533.126 172.758 532.156 171.903 532.013L155.107 529.361C154.309 529.247 153.853 528.362 154.166 527.592Z" fill="#19F9FE"/>
<circle cx="788.5" cy="282.5" r="95.413" fill="white" fill-opacity="0.24"/>
<g filter="url(#filter0_f)">
<circle cx="788.5" cy="282.5" r="103" stroke="white" stroke-width="3"/>
</g>
<circle cx="788.5" cy="282.5" r="103" stroke="#1CF9FF" stroke-width="3"/>
<g filter="url(#filter1_f)">
<circle cx="871.996" cy="220.996" r="9.99565" fill="#17F8FF"/>
</g>
<g filter="url(#filter2_f)">
<circle cx="871.996" cy="220.996" r="9.99565" fill="white"/>
</g>
<g filter="url(#filter3_f)">
<circle cx="699.5" cy="334.5" r="7.5" fill="white"/>
</g>
<g filter="url(#filter4_f)">
<circle cx="699.5" cy="334.5" r="7.5" fill="white"/>
</g>
<path d="M819.982 278.065C817.934 277.017 817.951 276.372 819.756 274.952M819.982 278.065C825.803 281.032 830.156 285.355 832.607 291.467M819.982 278.065L820.666 276.73C820.665 276.729 820.664 276.729 820.664 276.729L819.982 278.065ZM819.756 274.952L758.132 280.307C758.132 280.307 758.1 302.175 758.197 313.11C758.213 315.303 757.407 316.093 755.311 315.997C754.381 315.951 753.446 315.972 752.512 315.994C751.793 316.01 751.075 316.027 750.361 316.013C748.829 315.981 748.313 316.722 748.281 318.174C748.224 320.601 748.129 323.028 748.035 325.456C747.967 327.189 747.899 328.923 747.845 330.656C747.749 333.543 748.168 334.011 751.022 333.946C754.166 333.866 757.31 333.737 760.438 333.543M819.756 274.952C820.157 274.636 820.574 274.336 820.992 274.035C821.853 273.415 822.716 272.794 823.433 272.033L819.756 274.952ZM832.607 291.467C835.251 298.047 835.477 304.853 833.832 311.658C831.914 319.303 827.802 325.625 820.998 329.882M832.607 291.467L833.999 290.909C833.999 290.908 833.999 290.908 833.999 290.908C833.999 290.908 833.999 290.908 833.999 290.908L832.607 291.467ZM820.998 329.882C817.451 332.108 813.42 332.818 809.292 333.027C804.407 333.268 804.407 333.285 804.391 338.029L804.391 338.123C804.375 341.481 804.575 342.901 803.968 343.497C803.359 344.095 801.936 343.865 798.667 343.929C797.755 343.945 796.847 343.937 795.942 343.929C795.038 343.921 794.135 343.913 793.233 343.929M820.998 329.882L821.794 331.154C821.794 331.154 821.794 331.154 821.794 331.154M820.998 329.882L821.795 331.153C821.795 331.153 821.794 331.153 821.794 331.154M793.233 343.929C791.75 343.962 791.073 343.284 791.105 341.801M793.233 343.929L793.26 345.429C793.261 345.429 793.262 345.429 793.263 345.429M793.233 343.929L793.266 345.429C793.265 345.429 793.264 345.429 793.263 345.429M791.105 341.801C791.12 340.959 791.114 340.121 791.108 339.284C791.102 338.31 791.095 337.338 791.121 336.366M791.105 341.801L789.605 341.768C789.605 341.769 789.605 341.77 789.605 341.771C789.605 341.772 789.605 341.773 789.605 341.774L791.105 341.801ZM791.121 336.366C791.169 334.414 790.363 333.479 788.315 333.543C785.413 333.656 782.495 333.705 779.593 333.576C777.368 333.463 776.674 334.527 776.674 336.511C776.674 336.873 776.677 337.237 776.68 337.6C776.693 339.128 776.705 340.657 776.497 342.155C776.416 342.8 775.481 343.768 774.868 343.833C772.921 344.019 770.968 344.104 769.017 344.188C767.752 344.243 766.488 344.298 765.227 344.381C763.356 344.51 762.647 343.687 762.76 341.881C762.82 340.839 762.843 339.792 762.867 338.743C762.887 337.828 762.908 336.911 762.953 335.995C763.05 334.172 762.276 333.43 760.438 333.543M791.121 336.366L789.621 336.328C789.621 336.328 789.621 336.327 789.621 336.327C789.641 335.515 789.467 335.284 789.423 335.238C789.394 335.208 789.192 335.017 788.368 335.042C785.448 335.156 782.485 335.206 779.526 335.074L779.517 335.074C778.623 335.028 778.434 335.238 778.413 335.262L778.412 335.262C778.343 335.339 778.174 335.625 778.174 336.511C778.174 336.846 778.177 337.19 778.18 337.542C778.193 339.073 778.208 340.738 777.984 342.354C777.879 343.157 777.355 343.847 776.959 344.256C776.73 344.492 776.461 344.72 776.167 344.905C775.893 345.076 775.496 345.275 775.025 345.324L775.018 345.325L775.011 345.326C773.042 345.514 771.001 345.603 769.008 345.691C767.751 345.746 766.514 345.8 765.326 345.878C764.217 345.954 763.017 345.784 762.165 344.893C761.333 344.023 761.198 342.836 761.262 341.791C761.317 340.846 761.341 339.892 761.363 338.91L761.367 338.706C761.388 337.795 761.409 336.859 761.455 335.921L761.455 335.915C761.484 335.364 761.4 335.166 761.374 335.12C761.329 335.095 761.122 335.004 760.53 335.04M791.121 336.366L756.632 280.307L756.632 280.309L756.632 280.32L756.632 280.368L756.632 280.553L756.631 281.266C756.63 281.886 756.629 282.783 756.629 283.894C756.627 286.115 756.626 289.191 756.628 292.609C756.632 299.442 756.648 307.648 756.697 313.122C756.704 314.108 756.507 314.329 756.487 314.349L756.487 314.349C756.48 314.356 756.296 314.54 755.381 314.498C754.502 314.455 753.63 314.469 752.803 314.487C752.692 314.489 752.583 314.492 752.474 314.494C751.753 314.511 751.07 314.526 750.39 314.513C749.403 314.493 748.375 314.716 747.64 315.537C746.953 316.305 746.8 317.303 746.781 318.14C746.725 320.564 746.631 322.962 746.537 325.372C746.469 327.105 746.401 328.846 746.346 330.608C746.322 331.343 746.324 332.033 746.418 332.63C746.513 333.238 746.725 333.903 747.243 334.445C747.767 334.992 748.426 335.23 749.039 335.341C749.636 335.45 750.325 335.463 751.056 335.446L751.06 335.446C754.219 335.365 757.382 335.235 760.53 335.04M760.438 333.543L760.53 335.04C760.53 335.04 760.53 335.04 760.53 335.04M760.438 333.543L760.53 335.04M793.263 345.429C794.141 345.413 795.023 345.421 795.931 345.429L795.938 345.429C796.837 345.437 797.762 345.446 798.693 345.429L798.696 345.429C799.493 345.413 800.179 345.415 800.778 345.419L800.933 345.419C801.461 345.422 801.943 345.425 802.356 345.413C802.802 345.4 803.26 345.368 803.68 345.27C804.116 345.168 804.601 344.974 805.012 344.575C805.802 343.805 805.874 342.691 805.9 341.899C805.916 341.425 805.909 340.804 805.901 340.078C805.894 339.49 805.887 338.833 805.891 338.131L805.891 338.128C805.895 336.88 805.898 336.071 805.963 335.486C806.007 335.082 806.07 334.93 806.091 334.888C806.132 334.864 806.284 334.792 806.693 334.726C807.28 334.631 808.102 334.588 809.366 334.525L809.368 334.525C813.6 334.31 817.93 333.578 821.794 331.154M793.263 345.429L821.794 331.154M805.664 223.328L805.664 223.329C805.709 224.392 805.74 225.092 805.815 225.611C805.878 226.041 805.951 226.173 805.966 226.196C805.996 226.217 806.106 226.278 806.406 226.34C806.866 226.436 807.54 226.49 808.603 226.539L805.664 223.328ZM805.664 223.328C805.664 223.328 805.664 223.328 805.664 223.328C805.649 222.983 805.649 222.616 805.649 222.229C805.666 221.215 805.458 220.124 804.661 219.315C803.85 218.491 802.741 218.274 801.674 218.314L805.664 223.328ZM789.147 225.813L789.152 225.813C789.492 225.823 789.713 225.807 789.854 225.779C789.873 225.776 789.889 225.772 789.902 225.769C789.928 225.677 789.96 225.48 789.945 225.102C789.945 225.101 789.945 225.101 789.945 225.1L791.443 225.038L789.147 225.813ZM789.147 225.813C788.765 225.802 788.382 225.791 787.997 225.78C786.025 225.724 784.02 225.667 782.027 225.667L782.024 225.667M789.147 225.813L782.024 225.667M796.541 218.329C797.085 218.329 797.618 218.333 798.144 218.338C799.34 218.348 800.501 218.358 801.674 218.314L796.541 218.329ZM796.541 218.329C796.54 218.329 796.539 218.329 796.538 218.329H796.541ZM782.024 225.667C781.863 225.667 781.709 225.668 781.56 225.668C780.165 225.672 779.244 225.675 778.587 225.618C778.288 225.591 778.113 225.556 778.018 225.532C777.998 225.432 777.969 225.237 777.952 224.888C777.938 224.571 777.934 224.201 777.928 223.733C777.928 223.682 777.927 223.63 777.927 223.577C777.921 223.046 777.912 222.422 777.883 221.703L777.883 221.703M782.024 225.667L777.883 221.703M777.883 221.703C777.847 220.815 777.668 219.788 776.889 219.056C776.112 218.326 775.089 218.223 774.271 218.232L774.27 218.232M777.883 221.703L774.27 218.232M774.27 218.232C774.09 218.234 773.91 218.236 773.731 218.239M774.27 218.232L773.731 218.239M779.647 245.761L779.644 245.761C778.579 245.717 778.302 245.924 778.244 245.98C778.184 246.038 777.974 246.309 777.981 247.362C777.981 247.363 777.981 247.363 777.981 247.364L779.647 245.761ZM779.647 245.761C783.383 245.908 797.877 245.875 801.424 245.794C805.726 245.708 808.553 247.485 810.175 250.038C811.839 252.657 812.331 256.258 811.536 259.873C810.516 264.488 806.806 267.685 802.089 267.825L802.086 267.825M779.647 245.761L802.086 267.825M777.948 267.21C777.948 267.209 777.948 267.209 777.948 267.208L776.449 267.195L777.948 267.21ZM777.948 267.21C777.945 267.567 777.985 267.784 778.025 267.906M777.948 267.21L778.025 267.906M802.086 267.825C797.256 267.977 792.44 268.02 787.603 268.063C784.746 268.089 781.882 268.115 779.003 268.163L779.001 268.163M802.086 267.825L779.001 268.163M779.001 268.163C778.647 268.169 778.411 268.139 778.26 268.1M779.001 268.163L778.26 268.1M779.367 314.514L779.371 314.513C781.036 314.465 784.827 314.469 788.904 314.474C789.619 314.475 790.343 314.476 791.066 314.477C795.956 314.481 800.775 314.472 802.682 314.37M779.367 314.514L814.403 309.691M779.367 314.514C778.463 314.543 778.257 314.377 778.242 314.364C778.238 314.36 778.229 314.351 778.217 314.331C778.203 314.309 778.181 314.266 778.157 314.19C778.107 314.031 778.061 313.764 778.061 313.337C778.078 305.394 778.013 297.437 777.932 289.502C777.925 288.641 778.087 288.442 778.11 288.418C778.119 288.407 778.299 288.214 779.208 288.193L779.213 288.193C780.217 288.166 781.235 288.138 782.263 288.108C789.459 287.905 797.167 287.687 804.481 288.19L804.482 288.19C810.617 288.608 814.687 293.794 814.629 300.354M779.367 314.514L814.629 300.354M802.682 314.37L802.762 315.868L802.681 314.37C802.682 314.37 802.682 314.37 802.682 314.37ZM802.682 314.37C807.406 314.115 811.279 313.053 813.03 309.087M813.03 309.087C813.03 309.088 813.029 309.089 813.029 309.09L814.403 309.691M813.03 309.087C814.16 306.503 814.598 303.372 814.629 300.354M813.03 309.087C813.031 309.086 813.031 309.086 813.031 309.085L814.403 309.691M814.403 309.691L814.629 300.354M773.731 218.239C771.145 218.27 768.628 218.3 766.13 218.139L773.731 218.239ZM778.26 268.1C778.188 268.081 778.143 268.062 778.118 268.049M778.26 268.1L778.118 268.049M778.118 268.049C778.094 268.037 778.085 268.029 778.083 268.027M778.118 268.049L778.083 268.027M778.083 268.027C778.082 268.026 778.077 268.022 778.069 268.009M778.083 268.027L778.069 268.009M778.069 268.009C778.06 267.995 778.044 267.964 778.025 267.906M778.069 268.009L778.025 267.906M761.367 335.109C761.367 335.109 761.367 335.11 761.368 335.111C761.367 335.11 761.366 335.109 761.367 335.109ZM747.819 226.223C746.835 227.128 746.6 228.438 746.636 229.74L766.13 218.138C764.903 218.059 763.582 218.189 762.598 219.042C761.569 219.933 761.311 221.248 761.357 222.554C761.361 222.705 761.351 222.855 761.335 223.085C761.332 223.132 761.329 223.182 761.325 223.236C761.307 223.513 761.285 223.901 761.333 224.311C761.367 224.676 761.338 224.894 761.306 225.01C761.291 225.065 761.276 225.094 761.269 225.106C761.263 225.117 761.259 225.122 761.254 225.126C761.231 225.147 761.01 225.31 760.206 225.296L760.204 225.296C758.913 225.275 757.671 225.28 756.446 225.285C754.718 225.292 753.024 225.299 751.272 225.232L751.271 225.232C750.074 225.188 748.775 225.343 747.819 226.223ZM806.099 334.875C806.099 334.875 806.098 334.876 806.097 334.878C806.098 334.875 806.099 334.874 806.099 334.875ZM806.081 334.894C806.08 334.895 806.079 334.896 806.079 334.896C806.079 334.896 806.08 334.895 806.081 334.894ZM805.958 226.189C805.958 226.189 805.961 226.191 805.965 226.195C805.959 226.191 805.957 226.189 805.958 226.189ZM789.877 225.835C789.877 225.835 789.879 225.83 789.884 225.822C789.88 225.832 789.877 225.835 789.877 225.835Z" fill="url(#paint0_linear)" stroke="#1D51B8" stroke-width="3"/>
<g filter="url(#filter5_f)">
<circle cx="1489" cy="442.996" r="9.99565" fill="#17F8FF"/>
</g>
<g filter="url(#filter6_f)">
<circle cx="1489" cy="442.996" r="9.99565" fill="white"/>
</g>
<defs>
<filter id="filter0_f" x="674" y="168" width="229" height="229" filterUnits="userSpaceOnUse" color-interpolation-filters="sRGB">
<feFlood flood-opacity="0" result="BackgroundImageFix"/>
<feBlend mode="normal" in="SourceGraphic" in2="BackgroundImageFix" result="shape"/>
<feGaussianBlur stdDeviation="5" result="effect1_foregroundBlur"/>
</filter>
<filter id="filter1_f" x="852" y="201" width="39.9913" height="39.9913" filterUnits="userSpaceOnUse" color-interpolation-filters="sRGB">
<feFlood flood-opacity="0" result="BackgroundImageFix"/>
<feBlend mode="normal" in="SourceGraphic" in2="BackgroundImageFix" result="shape"/>
<feGaussianBlur stdDeviation="5" result="effect1_foregroundBlur"/>
</filter>
<filter id="filter2_f" x="852" y="201" width="39.9913" height="39.9913" filterUnits="userSpaceOnUse" color-interpolation-filters="sRGB">
<feFlood flood-opacity="0" result="BackgroundImageFix"/>
<feBlend mode="normal" in="SourceGraphic" in2="BackgroundImageFix" result="shape"/>
<feGaussianBlur stdDeviation="5" result="effect1_foregroundBlur"/>
</filter>
<filter id="filter3_f" x="682" y="317" width="35" height="35" filterUnits="userSpaceOnUse" color-interpolation-filters="sRGB">
<feFlood flood-opacity="0" result="BackgroundImageFix"/>
<feBlend mode="normal" in="SourceGraphic" in2="BackgroundImageFix" result="shape"/>
<feGaussianBlur stdDeviation="5" result="effect1_foregroundBlur"/>
</filter>
<filter id="filter4_f" x="682" y="317" width="35" height="35" filterUnits="userSpaceOnUse" color-interpolation-filters="sRGB">
<feFlood flood-opacity="0" result="BackgroundImageFix"/>
<feBlend mode="normal" in="SourceGraphic" in2="BackgroundImageFix" result="shape"/>
<feGaussianBlur stdDeviation="5" result="effect1_foregroundBlur"/>
</filter>
<filter id="filter5_f" x="1469" y="423" width="39.9913" height="39.9913" filterUnits="userSpaceOnUse" color-interpolation-filters="sRGB">
<feFlood flood-opacity="0" result="BackgroundImageFix"/>
<feBlend mode="normal" in="SourceGraphic" in2="BackgroundImageFix" result="shape"/>
<feGaussianBlur stdDeviation="5" result="effect1_foregroundBlur"/>
</filter>
<filter id="filter6_f" x="1469" y="423" width="39.9913" height="39.9913" filterUnits="userSpaceOnUse" color-interpolation-filters="sRGB">
<feFlood flood-opacity="0" result="BackgroundImageFix"/>
<feBlend mode="normal" in="SourceGraphic" in2="BackgroundImageFix" result="shape"/>
<feGaussianBlur stdDeviation="5" result="effect1_foregroundBlur"/>
</filter>
<linearGradient id="paint0_linear" x1="791.354" y1="219.618" x2="791.354" y2="344.394" gradientUnits="userSpaceOnUse">
<stop stop-color="#91FFFE"/>
<stop offset="1" stop-color="#18F8FE"/>
</linearGradient>
</defs>
</svg>
