<svg width="101" height="101" viewBox="0 0 101 101" fill="none" xmlns="http://www.w3.org/2000/svg">
<path opacity="0.22" d="M98.244 60.2758C92.655 86.8298 66.5921 103.857 40.0444 98.2672C13.4968 92.6768 -3.52681 66.6077 2.06217 40.0537C7.65115 13.4997 33.714 -3.52789 60.2617 2.06243C86.8094 7.65275 103.833 33.6933 98.244 60.2758Z" fill="#CDF8F4"/>
<path d="M50.4684 100.765C46.9896 100.765 43.4822 100.394 40.0033 99.681C12.8283 93.9766 -4.62299 67.1944 1.08005 40.0129C6.78309 12.8314 33.5589 -4.6241 60.7339 1.08031C87.9089 6.78472 105.36 33.567 99.6572 60.7485C96.8912 73.9256 89.1636 85.2203 77.9 92.579C69.6021 97.9697 60.1351 100.765 50.4684 100.765ZM50.3543 2.4494C28.1695 2.4494 8.20887 17.9653 3.47534 40.5263C-1.97106 66.3958 14.6533 91.8375 40.4881 97.2852C53.0063 99.9092 65.8096 97.5133 76.5313 90.5254C87.253 83.5375 94.61 72.7847 97.2334 60.2635C102.68 34.3941 86.0554 8.95241 60.2206 3.5047C56.9129 2.76313 53.6051 2.4494 50.3543 2.4494Z" fill="#CDF8F4"/>
<path d="M49.1662 59.5924L52.0177 53.0609C52.1888 52.6901 52.531 52.4048 52.9302 52.3193L58.234 51.2069C58.7473 51.0928 59.1465 50.665 59.2321 50.1516L59.7168 47.1282C59.8594 46.244 59.061 45.5025 58.177 45.6737L54.9548 46.3582L60.6293 33.3521C60.9715 32.582 60.4867 31.6978 59.6598 31.5838L49.7365 30.015C49.1662 29.9294 48.5959 30.2147 48.3678 30.7566L40.1268 48.9821C39.9557 49.3529 39.6136 49.6096 39.2144 49.6952L34.5379 50.6935C34.0246 50.8076 33.6254 51.2354 33.5398 51.7488L32 56.7401L37.1042 55.6564L32.9125 64.9261C32.5703 65.6961 33.0551 66.5803 33.882 66.7229L63.823 71.4575C64.3648 71.5431 64.878 71.2865 65.1347 70.8016L67.8151 65.8958C68.2429 65.1257 67.7581 64.1559 66.9027 64.0133L50.1072 61.3608C49.3088 61.2467 48.8525 60.3624 49.1662 59.5924Z" fill="#19F9FE"/>
</svg>
