<svg width="32" height="32" viewBox="0 0 32 32" fill="none" xmlns="http://www.w3.org/2000/svg">
<path d="M16.0003 1.28027C7.87777 1.28027 1.28027 7.87777 1.28027 16.0003C1.28027 24.1228 7.87777 30.7203 16.0003 30.7203C24.1228 30.7203 30.7203 24.1228 30.7203 16.0003C30.7203 7.87777 24.1228 1.28027 16.0003 1.28027ZM16.0003 2.56027C23.4303 2.56027 29.4403 8.57027 29.4403 16.0003C29.4403 23.4303 23.4303 29.4403 16.0003 29.4403C8.57027 29.4403 2.56027 23.4303 2.56027 16.0003C2.56027 8.57027 8.57027 2.56027 16.0003 2.56027ZM13.3603 10.2403C13.2178 10.2553 13.0828 10.3203 12.9803 10.4203L7.96027 15.4603L7.90027 15.4803C7.88527 15.4928 7.87277 15.5053 7.86027 15.5203V15.5403C7.84527 15.5528 7.83277 15.5653 7.82027 15.5803C7.80527 15.5928 7.79277 15.6053 7.78027 15.6203C7.78027 15.6278 7.78027 15.6328 7.78027 15.6403C7.76527 15.6528 7.75277 15.6653 7.74027 15.6803C7.74027 15.6878 7.74027 15.6928 7.74027 15.7003C7.70027 15.7678 7.67277 15.8428 7.66027 15.9203C7.66027 15.9278 7.66027 15.9328 7.66027 15.9403C7.66027 15.9603 7.66027 15.9803 7.66027 16.0003C7.66027 16.0128 7.66027 16.0278 7.66027 16.0403C7.66027 16.0478 7.66027 16.0528 7.66027 16.0603C7.67027 16.1453 7.69777 16.2253 7.74027 16.3003C7.74527 16.3128 7.75277 16.3278 7.76027 16.3403C7.76777 16.3478 7.77277 16.3528 7.78027 16.3603C7.78527 16.3728 7.79277 16.3878 7.80027 16.4003C7.80777 16.4078 7.81277 16.4128 7.82027 16.4203C7.82777 16.4278 7.83277 16.4328 7.84027 16.4403C7.84777 16.4478 7.85277 16.4528 7.86027 16.4603C7.89527 16.4978 7.93527 16.5328 7.98027 16.5603L12.9803 21.5803C13.2353 21.8353 13.6453 21.8353 13.9003 21.5803C14.1553 21.3253 14.1553 20.9153 13.9003 20.6603L9.88027 16.6403H23.6803C23.9103 16.6428 24.1253 16.5228 24.2428 16.3228C24.3578 16.1228 24.3578 15.8778 24.2428 15.6778C24.1253 15.4778 23.9103 15.3578 23.6803 15.3603H9.88027L13.9003 11.3403C14.1078 11.1478 14.1628 10.8428 14.0378 10.5903C13.9153 10.3353 13.6378 10.1953 13.3603 10.2403Z" fill="white"/>
</svg>
