<svg width="40" height="40" viewBox="0 0 40 40" fill="none" xmlns="http://www.w3.org/2000/svg">
<g clip-path="url(#clip0)">
<path d="M20.0001 2.3999C15.1495 2.3999 11.2001 6.34927 11.2001 11.1999C11.2001 16.0505 15.1495 19.9999 20.0001 19.9999C24.8508 19.9999 28.8001 16.0505 28.8001 11.1999C28.8001 6.34927 24.8508 2.3999 20.0001 2.3999ZM20.0001 3.9999C23.9861 3.9999 27.2001 7.21398 27.2001 11.1999C27.2001 15.1858 23.9861 18.3999 20.0001 18.3999C16.0142 18.3999 12.8001 15.1858 12.8001 11.1999C12.8001 7.21398 16.0142 3.9999 20.0001 3.9999ZM19.2001 5.5999V7.01553C17.0817 7.37073 17.0142 9.25326 17.0142 9.47646C17.0142 11.4573 18.6176 11.815 19.9064 12.103C21.0632 12.3622 21.7173 12.5473 21.7173 13.3249C21.7173 13.7913 21.4945 14.5749 20.0017 14.5749C19.9689 14.5749 19.1928 14.5691 18.7064 14.0827C18.4192 13.7955 18.2803 13.3803 18.2939 12.8499L18.2954 12.7999H16.8095L16.8111 12.8515C16.8591 14.5315 17.6449 15.4914 19.2017 15.7874V16.7999H19.2782H20.7345H20.8001V15.8124C23.0769 15.4428 23.2001 13.678 23.2001 13.314C23.2009 11.4012 21.5975 11.0334 20.3095 10.7374C19.1527 10.4718 18.4986 10.285 18.4986 9.55303C18.4986 8.67703 18.9828 8.26865 20.0236 8.26865C21.1564 8.26865 21.4546 8.9655 21.4954 9.5999H22.9798C22.9806 8.9791 22.7285 8.3113 22.2845 7.8249C21.8957 7.4001 21.385 7.12669 20.7986 7.01709V5.5999H20.7345H19.2767H19.2001ZM10.772 19.9999C8.50246 19.9999 7.47184 20.5494 6.33606 20.9983C6.33554 20.9983 6.33502 20.9983 6.3345 20.9983C4.16905 21.8564 0.45325 23.6437 0.45325 23.6437C0.358421 23.6892 0.273491 23.753 0.203311 23.8313C0.133131 23.9097 0.0790753 24.0011 0.0442324 24.1004C0.00938943 24.1996 -0.00555861 24.3048 0.000242028 24.4098C0.00604267 24.5148 0.0324783 24.6177 0.0780391 24.7125C0.1236 24.8073 0.187393 24.8922 0.265775 24.9624C0.344158 25.0325 0.435593 25.0866 0.534859 25.1214C0.634126 25.1562 0.739278 25.1711 0.84431 25.1653C0.949343 25.1595 1.0522 25.133 1.147 25.0874C1.147 25.0874 4.8855 23.2936 6.92356 22.4858C8.17178 21.9924 8.73593 21.5999 10.772 21.5999C15.2653 21.5999 15.1438 23.6171 16.9845 24.7218C16.985 24.7218 16.9855 24.7218 16.9861 24.7218C17.6464 25.1178 18.6681 25.442 19.8361 25.739C19.9568 25.8064 20.093 25.8414 20.2314 25.8405H20.2329C21.5461 26.1582 22.9358 26.3999 24.0001 26.3999C24.9351 26.3999 25.5957 26.5792 25.947 26.7999C26.2983 27.0206 26.4001 27.2027 26.4001 27.5999C26.4001 28.0656 26.2929 28.2246 25.9423 28.4327C25.5917 28.6408 24.9206 28.7999 24.0001 28.7999H19.3595C17.4005 28.7999 14.6204 28.0312 14.6204 28.0312C14.5184 27.9985 14.4108 27.9866 14.3041 27.9963C14.1974 28.0059 14.0937 28.0369 13.9992 28.0875C13.9047 28.138 13.8213 28.2069 13.754 28.2903C13.6866 28.3736 13.6367 28.4697 13.6072 28.5727C13.5777 28.6757 13.5692 28.7836 13.5821 28.8899C13.5951 28.9963 13.6293 29.099 13.6827 29.1919C13.7361 29.2847 13.8076 29.366 13.893 29.4307C13.9784 29.4954 14.0759 29.5423 14.1798 29.5687C14.1798 29.5687 17.0049 30.3999 19.3595 30.3999H24.0001C25.0829 30.3999 26.0109 30.2536 26.7595 29.8093C26.9845 29.6757 27.1825 29.5028 27.3548 29.3062C27.415 29.2834 27.4721 29.2535 27.5251 29.2171L34.7204 24.378C35.968 23.6379 36.8283 23.4276 37.3408 23.4374C37.8534 23.4472 38.0474 23.6095 38.2111 23.8233C38.4483 24.1336 38.4669 24.2983 38.3126 24.664C38.1584 25.0297 37.7174 25.5574 36.9454 26.1046C35.9849 26.7861 25.4143 33.8076 24.172 34.5265C23.2527 35.0592 22.5115 35.6265 21.6642 35.8671C20.8171 36.1076 19.8151 36.1049 18.1767 35.3077H18.1751C17.0808 34.7746 12.4582 32.3605 10.9579 31.5858C10.1289 31.1573 9.4299 30.9206 8.71575 30.9608C8.0016 31.0011 7.39679 31.3126 6.76106 31.7187C6.75897 31.7202 6.75689 31.7218 6.75481 31.7233L4.597 33.1312C4.50765 33.1879 4.43046 33.2618 4.36988 33.3486C4.3093 33.4354 4.26655 33.5334 4.2441 33.6368C4.22164 33.7402 4.21994 33.8471 4.23908 33.9512C4.25822 34.0553 4.29783 34.1546 4.35561 34.2433C4.41339 34.3319 4.48819 34.4083 4.57569 34.4679C4.66318 34.5274 4.76162 34.569 4.86531 34.5903C4.969 34.6115 5.07588 34.612 5.17975 34.5917C5.28362 34.5713 5.38243 34.5306 5.47044 34.4718L7.62981 33.064C8.18102 32.7128 8.50709 32.5761 8.80637 32.5593C9.10763 32.5423 9.50943 32.6386 10.2236 33.0077C11.7102 33.7753 16.2724 36.1594 17.4751 36.7452C19.3645 37.6648 20.8838 37.752 22.1017 37.4062C23.3196 37.0603 24.1881 36.3661 24.9736 35.9108C26.64 34.9465 36.6662 28.2637 37.8704 27.4093V27.4108C38.7881 26.7604 39.4513 26.0793 39.7861 25.2858C40.1208 24.4923 40.0129 23.5468 39.4814 22.8515C39.0634 22.3053 38.3168 21.8554 37.3704 21.8374C36.7012 21.8246 35.9005 22.0776 35.0189 22.4733C34.9855 22.3133 35.0633 22.1367 34.9923 21.9827C34.7203 21.3927 34.1142 20.9771 33.4329 20.8421C33.4324 20.8421 33.4319 20.8421 33.4314 20.8421C32.5377 20.6654 31.5255 20.9407 30.5236 21.4015C30.4522 21.1843 30.3978 20.9566 30.2533 20.7843C29.8242 20.2729 29.2071 20.0913 28.6329 20.0468C27.4846 19.9578 26.2901 20.3327 25.4267 20.8468C24.2284 21.5599 20.6475 23.8263 20.1267 24.1562C19.0573 23.868 18.0935 23.5196 17.8079 23.3483V23.3499C17.0759 22.9105 15.8163 19.9999 10.772 19.9999ZM28.5095 21.6421C28.8292 21.6669 28.9821 21.7593 29.0267 21.8124C29.0606 21.8528 29.1136 21.9282 29.0892 22.164L25.1392 24.8874C24.7813 24.8346 24.4074 24.7999 24.0001 24.7999C23.5768 24.7999 22.9974 24.7363 22.3658 24.6358C23.7577 23.7578 25.4828 22.6731 26.2439 22.2202C26.7805 21.9007 27.87 21.5925 28.5095 21.6421ZM32.5892 22.3983C32.8008 22.3788 32.9833 22.3834 33.122 22.4108C33.4543 22.4767 33.4864 22.5384 33.5392 22.653C33.5784 22.7382 33.5905 22.9525 33.5626 23.228L27.9267 27.0187C27.7869 26.4417 27.4457 25.9266 26.9689 25.5687L30.2704 23.2937C30.2988 23.2746 30.326 23.2537 30.3517 23.2312C31.1134 22.7207 31.9743 22.4551 32.5892 22.3983Z" fill="#76FFFF"/>
</g>
<defs>
<clipPath id="clip0">
<rect width="40" height="40" fill="white"/>
</clipPath>
</defs>
</svg>
