<svg width="70" height="70" viewBox="0 0 70 70" fill="none" xmlns="http://www.w3.org/2000/svg">
<path d="M35 4C34.3148 4 33.6577 4.27217 33.1733 4.75664C32.6888 5.24111 32.4166 5.89819 32.4166 6.58333C32.4166 7.26847 32.6888 7.92555 33.1733 8.41002C33.6577 8.89449 34.3148 9.16666 35 9.16666C49.2677 9.16666 60.8333 20.7322 60.8333 35C60.8333 49.2677 49.2677 60.8333 35 60.8333C34.3148 60.8333 33.6577 61.1054 33.1733 61.5899C32.6888 62.0744 32.4166 62.7315 32.4166 63.4166C32.4166 64.1017 32.6888 64.7588 33.1733 65.2433C33.6577 65.7278 34.3148 65.9999 35 65.9999C35.0825 66.0005 35.165 65.9972 35.2472 65.9898C52.2518 65.8554 65.9999 52.0363 65.9999 35C65.9999 17.9672 52.2571 4.15511 35.2573 4.01514C35.1718 4.00581 35.0859 4.00076 35 4ZM24.1217 6.16455C23.4366 6.16455 22.7795 6.43672 22.295 6.92119C21.8106 7.40566 21.5384 8.06274 21.5384 8.74788C21.5384 9.43302 21.8106 10.0901 22.295 10.5746C22.7795 11.059 23.4366 11.3312 24.1217 11.3312C24.8069 11.3312 25.4639 11.059 25.9484 10.5746C26.4329 10.0901 26.705 9.43302 26.705 8.74788C26.705 8.06274 26.4329 7.40566 25.9484 6.92119C25.4639 6.43672 24.8069 6.16455 24.1217 6.16455ZM14.9085 12.3252C14.2234 12.3252 13.5663 12.5974 13.0818 13.0818C12.5974 13.5663 12.3252 14.2234 12.3252 14.9085C12.3252 15.5937 12.5974 16.2507 13.0818 16.7352C13.5663 17.2197 14.2234 17.4918 14.9085 17.4918C15.5937 17.4918 16.2507 17.2197 16.7352 16.7352C17.2197 16.2507 17.4918 15.5937 17.4918 14.9085C17.4918 14.2234 17.2197 13.5663 16.7352 13.0818C16.2507 12.5974 15.5937 12.3252 14.9085 12.3252ZM8.74788 21.5384C8.06274 21.5384 7.40566 21.8106 6.92119 22.295C6.43672 22.7795 6.16455 23.4366 6.16455 24.1217C6.16455 24.8069 6.43672 25.4639 6.92119 25.9484C7.40566 26.4329 8.06274 26.7051 8.74788 26.7051C9.43302 26.7051 10.0901 26.4329 10.5746 25.9484C11.059 25.4639 11.3312 24.8069 11.3312 24.1217C11.3312 23.4366 11.059 22.7795 10.5746 22.295C10.0901 21.8106 9.43302 21.5384 8.74788 21.5384ZM6.58333 32.4166C5.89819 32.4166 5.24111 32.6888 4.75664 33.1733C4.27217 33.6577 4 34.3148 4 35C4 35.6851 4.27217 36.3422 4.75664 36.8267C5.24111 37.3111 5.89819 37.5833 6.58333 37.5833C7.26847 37.5833 7.92555 37.3111 8.41002 36.8267C8.89449 36.3422 9.16666 35.6851 9.16666 35C9.16666 34.3148 8.89449 33.6577 8.41002 33.1733C7.92555 32.6888 7.26847 32.4166 6.58333 32.4166ZM8.74788 43.2949C8.06274 43.2949 7.40566 43.5671 6.92119 44.0515C6.43672 44.536 6.16455 45.1931 6.16455 45.8782C6.16455 46.5634 6.43672 47.2204 6.92119 47.7049C7.40566 48.1894 8.06274 48.4615 8.74788 48.4615C9.43302 48.4615 10.0901 48.1894 10.5746 47.7049C11.059 47.2204 11.3312 46.5634 11.3312 45.8782C11.3312 45.1931 11.059 44.536 10.5746 44.0515C10.0901 43.5671 9.43302 43.2949 8.74788 43.2949ZM14.9085 52.5081C14.2234 52.5081 13.5663 52.7803 13.0818 53.2647C12.5974 53.7492 12.3252 54.4063 12.3252 55.0914C12.3252 55.7766 12.5974 56.4336 13.0818 56.9181C13.5663 57.4026 14.2234 57.6747 14.9085 57.6747C15.5937 57.6747 16.2507 57.4026 16.7352 56.9181C17.2197 56.4336 17.4918 55.7766 17.4918 55.0914C17.4918 54.4063 17.2197 53.7492 16.7352 53.2647C16.2507 52.7803 15.5937 52.5081 14.9085 52.5081ZM24.1217 58.6687C23.4366 58.6687 22.7795 58.9409 22.295 59.4254C21.8106 59.9098 21.5384 60.5669 21.5384 61.2521C21.5384 61.9372 21.8106 62.5943 22.295 63.0787C22.7795 63.5632 23.4366 63.8354 24.1217 63.8354C24.8069 63.8354 25.4639 63.5632 25.9484 63.0787C26.4329 62.5943 26.705 61.9372 26.705 61.2521C26.705 60.5669 26.4329 59.9098 25.9484 59.4254C25.4639 58.9409 24.8069 58.6687 24.1217 58.6687Z" fill="#60FCFF"/>
<path d="M24.3529 33.8822C25.7342 33.8822 26.7516 34.1576 27.4049 34.7082C28.0676 35.2589 28.3989 35.9962 28.3989 36.9202C28.3989 37.5176 28.2496 38.0636 27.9509 38.5582C27.6522 39.0436 27.1949 39.4356 26.5789 39.7342C25.9722 40.0236 25.2209 40.1682 24.3249 40.1682C23.6342 40.1682 22.9529 40.0796 22.2809 39.9022C21.6182 39.7156 21.0536 39.4542 20.5869 39.1182L21.4829 37.3822C21.8562 37.6622 22.2856 37.8816 22.7709 38.0402C23.2562 38.1896 23.7556 38.2642 24.2689 38.2642C24.8382 38.2642 25.2862 38.1522 25.6129 37.9282C25.9396 37.7042 26.1029 37.3916 26.1029 36.9902C26.1029 36.5702 25.9302 36.2529 25.5849 36.0382C25.2489 35.8236 24.6609 35.7162 23.8209 35.7162H21.3149L21.8189 30.2002H27.7969V32.0202H23.7089L23.5549 33.8822H24.3529Z" fill="#60FCFF"/>
<path d="M33.5191 40.1682C32.7071 40.1682 31.9838 39.9676 31.3491 39.5662C30.7144 39.1649 30.2151 38.5862 29.8511 37.8302C29.4964 37.0649 29.3191 36.1549 29.3191 35.1002C29.3191 34.0456 29.4964 33.1402 29.8511 32.3842C30.2151 31.6189 30.7144 31.0356 31.3491 30.6342C31.9838 30.2329 32.7071 30.0322 33.5191 30.0322C34.3311 30.0322 35.0544 30.2329 35.6891 30.6342C36.3238 31.0356 36.8184 31.6189 37.1731 32.3842C37.5371 33.1402 37.7191 34.0456 37.7191 35.1002C37.7191 36.1549 37.5371 37.0649 37.1731 37.8302C36.8184 38.5862 36.3238 39.1649 35.6891 39.5662C35.0544 39.9676 34.3311 40.1682 33.5191 40.1682ZM33.5191 38.2502C34.1164 38.2502 34.5831 37.9936 34.9191 37.4802C35.2644 36.9669 35.4371 36.1736 35.4371 35.1002C35.4371 34.0269 35.2644 33.2336 34.9191 32.7202C34.5831 32.2069 34.1164 31.9502 33.5191 31.9502C32.9311 31.9502 32.4644 32.2069 32.1191 32.7202C31.7831 33.2336 31.6151 34.0269 31.6151 35.1002C31.6151 36.1736 31.7831 36.9669 32.1191 37.4802C32.4644 37.9936 32.9311 38.2502 33.5191 38.2502Z" fill="#60FCFF"/>
<path d="M41.089 35.4922C40.3704 35.4922 39.7824 35.2496 39.325 34.7642C38.877 34.2696 38.653 33.6116 38.653 32.7902C38.653 31.9689 38.877 31.3156 39.325 30.8302C39.7824 30.3356 40.3704 30.0882 41.089 30.0882C41.8077 30.0882 42.391 30.3356 42.839 30.8302C43.287 31.3156 43.511 31.9689 43.511 32.7902C43.511 33.6116 43.287 34.2696 42.839 34.7642C42.391 35.2496 41.8077 35.4922 41.089 35.4922ZM46.927 30.2002H48.593L41.901 40.0002H40.235L46.927 30.2002ZM41.089 34.3442C41.4064 34.3442 41.6537 34.2136 41.831 33.9522C42.0177 33.6909 42.111 33.3036 42.111 32.7902C42.111 32.2769 42.0177 31.8896 41.831 31.6282C41.6537 31.3669 41.4064 31.2362 41.089 31.2362C40.781 31.2362 40.5337 31.3716 40.347 31.6422C40.1604 31.9036 40.067 32.2862 40.067 32.7902C40.067 33.2942 40.1604 33.6816 40.347 33.9522C40.5337 34.2136 40.781 34.3442 41.089 34.3442ZM47.739 40.1122C47.2724 40.1122 46.8524 40.0049 46.479 39.7902C46.115 39.5662 45.8304 39.2489 45.625 38.8382C45.4197 38.4276 45.317 37.9516 45.317 37.4102C45.317 36.8689 45.4197 36.3929 45.625 35.9822C45.8304 35.5716 46.115 35.2589 46.479 35.0442C46.8524 34.8202 47.2724 34.7082 47.739 34.7082C48.4577 34.7082 49.041 34.9556 49.489 35.4502C49.9464 35.9356 50.175 36.5889 50.175 37.4102C50.175 38.2316 49.9464 38.8896 49.489 39.3842C49.041 39.8696 48.4577 40.1122 47.739 40.1122ZM47.739 38.9642C48.0564 38.9642 48.3037 38.8336 48.481 38.5722C48.6677 38.3016 48.761 37.9142 48.761 37.4102C48.761 36.9062 48.6677 36.5236 48.481 36.2622C48.3037 35.9916 48.0564 35.8562 47.739 35.8562C47.431 35.8562 47.1837 35.9869 46.997 36.2482C46.8104 36.5096 46.717 36.8969 46.717 37.4102C46.717 37.9236 46.8104 38.3109 46.997 38.5722C47.1837 38.8336 47.431 38.9642 47.739 38.9642Z" fill="#60FCFF"/>
</svg>
