<svg width="32" height="32" viewBox="0 0 32 32" fill="none" xmlns="http://www.w3.org/2000/svg">
<path d="M30.5 16C30.5 12.125 29 8.475 26.25 5.75C23.425 2.925 19.725 1.5 16 1.5C12.275 1.5 8.575 2.925 5.75 5.75C3 8.5 1.5 12.125 1.5 16C1.5 19.875 3 23.525 5.75 26.25C11.4 31.9 20.6 31.9 26.25 26.25C29 23.525 30.5 19.875 30.5 16ZM29 16C29 19.475 27.6502 22.7252 25.2002 25.2002C22.6502 27.7252 19.325 29 16 29C12.675 29 9.3498 27.7252 6.7998 25.2002C4.3498 22.7252 3 19.475 3 16C3 12.525 4.3498 9.2748 6.7998 6.7998C11.8748 1.7498 20.1252 1.7498 25.2002 6.7998C27.6502 9.2748 29 12.525 29 16ZM21.75 15.9907C21.75 15.8001 21.6749 15.6126 21.5249 15.4751L17.7749 11.7251C17.6249 11.5751 17.45 11.5 17.25 11.5C17.05 11.5 16.8751 11.5751 16.7251 11.7251C16.4251 12.0251 16.4251 12.4999 16.7251 12.7749L19.2002 15.25L11.5 15.25C11.075 15.25 10.75 15.575 10.75 16C10.75 16.425 11.075 16.75 11.5 16.75H19.2002L16.7251 19.2251C16.4251 19.5251 16.4251 19.9999 16.7251 20.2749C17.0251 20.5749 17.4999 20.5749 17.7749 20.2749L21.5249 16.5249C21.6749 16.3749 21.75 16.1813 21.75 15.9907Z" fill="white"/>
</svg>
