<svg width="32" height="32" viewBox="0 0 32 32" fill="none" xmlns="http://www.w3.org/2000/svg">
<path d="M1.5 16C1.5 19.875 3 23.525 5.75 26.25C8.575 29.075 12.275 30.5 16 30.5C19.725 30.5 23.425 29.075 26.25 26.25C29 23.5 30.5 19.875 30.5 16C30.5 12.125 29 8.475 26.25 5.75C20.6 0.100002 11.4 0.100002 5.75 5.75C3 8.475 1.5 12.125 1.5 16ZM3 16C3 12.525 4.3498 9.27481 6.7998 6.79981C9.3498 4.27481 12.675 3 16 3C19.325 3 22.6502 4.27481 25.2002 6.79981C27.6502 9.27481 29 12.525 29 16C29 19.475 27.6502 22.7252 25.2002 25.2002C20.1252 30.2502 11.8748 30.2502 6.7998 25.2002C4.3498 22.7252 3 19.475 3 16ZM10.25 16.0093C10.25 16.1999 10.3251 16.3874 10.4751 16.5249L14.2251 20.2749C14.3751 20.4249 14.55 20.5 14.75 20.5C14.95 20.5 15.1249 20.4249 15.2749 20.2749C15.5749 19.9749 15.5749 19.5001 15.2749 19.2251L12.7998 16.75H20.5C20.925 16.75 21.25 16.425 21.25 16C21.25 15.575 20.925 15.25 20.5 15.25L12.7998 15.25L15.2749 12.7749C15.5749 12.4749 15.5749 12.0001 15.2749 11.7251C14.9749 11.4251 14.5001 11.4251 14.2251 11.7251L10.4751 15.4751C10.3251 15.6251 10.25 15.8187 10.25 16.0093Z" fill="white"/>
</svg>
