<svg width="193" height="41" viewBox="0 0 193 41" fill="none" xmlns="http://www.w3.org/2000/svg">
<path d="M45.6877 41.0002L23.5702 18.8863L22.8224 29.4345L25.0694 31.7534C22.7565 32.8471 20.1528 33.1665 17.6441 32.6643C15.1355 32.162 12.8554 30.8649 11.1418 28.9652C9.42815 27.0654 8.37222 24.6641 8.13045 22.1171C7.88867 19.5701 8.47394 17.013 9.79949 14.8248C11.1251 12.6365 13.1204 10.9336 15.4897 9.96829C17.8591 9.00302 20.4764 8.82681 22.9537 9.46576C25.4311 10.1047 27.6366 11.5248 29.2436 13.5157C30.8505 15.5065 31.7732 17.9621 31.875 20.5185L38.8928 27.5327C40.441 23.0552 40.3489 18.1735 38.633 13.7576C36.917 9.34179 33.6886 5.67878 29.5234 3.42155C25.3582 1.16432 20.5267 0.459548 15.8902 1.43287C11.2537 2.4062 7.11352 4.99436 4.20761 8.73602C1.3017 12.4777 -0.181088 17.1297 0.0235559 21.8628C0.2282 26.5959 2.10698 31.1026 5.32499 34.5795C8.54301 38.0564 12.8911 40.2775 17.5943 40.847C22.2975 41.4165 27.0501 40.2974 31.005 37.6891L34.3054 40.9894L45.6877 41.0002Z" fill="url(#paint0_linear)"/>
<path style="mix-blend-mode:overlay" opacity="0.49" d="M11.5842 12.5835C13.2183 10.9478 15.2939 9.82405 17.5568 9.34983C19.8198 8.8756 22.1719 9.0715 24.3252 9.91352C26.4785 10.7555 28.3396 12.2072 29.6806 14.0907C31.0216 15.9742 31.7843 18.2078 31.8754 20.5181L38.8932 27.5323C39.7688 25.0058 40.1287 22.3293 39.9517 19.6612C39.7747 16.9931 39.0644 14.3877 37.8629 11.9989C36.6613 9.61016 34.9928 7.48666 32.9561 5.75404C30.9195 4.02141 28.556 2.71487 26.0055 1.91169C23.4551 1.1085 20.7694 0.825005 18.1075 1.07796C15.4455 1.33091 12.8614 2.11518 10.5078 3.38437C8.15431 4.65356 6.07923 6.38189 4.40536 8.4671C2.7315 10.5523 1.49285 12.9521 0.762695 15.5244C1.02155 30.6781 16.5815 32.3894 16.5815 32.3894C14.6092 31.7992 12.8238 30.7071 11.4001 29.2199C9.97647 27.7327 8.96324 25.9015 8.45957 23.9053C7.9559 21.9091 7.97905 19.8163 8.52676 17.8318C9.07447 15.8472 10.128 14.0388 11.5842 12.5835Z" fill="url(#paint1_linear)"/>
<g style="mix-blend-mode:overlay" opacity="0.77">
<path d="M15.459 31.9866V40.4677C18.1049 41.0839 20.8485 41.1553 23.5229 40.6775C26.1973 40.1997 28.7465 39.1828 31.0153 37.6886L25.0689 31.7529C23.5707 32.4557 21.9428 32.8394 20.2885 32.8796C18.6342 32.9199 16.9895 32.6158 15.459 31.9866Z" fill="black"/>
</g>
<path style="mix-blend-mode:overlay" opacity="0.77" d="M8.15757 19.8351C8.43572 16.8241 9.8504 14.032 12.1139 12.0269C14.3773 10.0218 17.3196 8.95415 20.3422 9.04116C23.3649 9.12818 26.2408 10.3633 28.3852 12.4953C30.5296 14.6273 31.7813 17.4961 31.8858 20.5182L38.8928 27.5324C39.8125 24.8749 40.1612 22.0532 39.916 19.2518C39.6708 16.4503 38.8372 13.7321 37.4698 11.2748C36.1024 8.81753 34.2318 6.6764 31.9804 4.99136C29.729 3.30631 27.1473 2.11529 24.4042 1.49609C7.39179 3.99475 8.15757 19.8351 8.15757 19.8351Z" fill="url(#paint2_linear)"/>
<path style="mix-blend-mode:overlay" opacity="0.77" d="M31.8745 20.5176L38.8923 27.5318C40.2337 23.6341 40.3442 19.4182 39.2087 15.4556C32.083 7.05006 20.334 9.1101 20.334 9.1101C23.3467 9.1901 26.2161 10.4137 28.3595 12.5323C30.5029 14.651 31.7596 17.506 31.8745 20.5176Z" fill="url(#paint3_linear)"/>
<path d="M100.459 22.9854H94.5086V20.7168C93.9766 20.713 93.4451 20.7527 92.9196 20.8354C92.4813 20.9005 92.0557 21.0327 91.6577 21.2273C91.3002 21.4085 90.989 21.6692 90.7481 21.9895C90.4854 22.3477 90.3072 22.7607 90.2268 23.1975V31.1392H94.6992V36.9455H80.376V31.1392H83.662V20.8031H80.4263V15.0005H90.1944V16.5464C90.8213 16.0463 91.5306 15.6594 92.2904 15.4031C93.109 15.1271 93.9683 14.991 94.8322 15.0005C95.7646 15.0005 96.7233 15.0065 97.7084 15.0184C98.697 15.0184 99.6174 15.04 100.462 15.04L100.459 22.9854Z" fill="#EAEAEA"/>
<path d="M109.756 27.3042L109.821 27.9585C109.963 28.5672 110.234 29.1385 110.615 29.6339C110.984 30.1097 111.431 30.5184 111.938 30.8419C112.462 31.169 113.033 31.4116 113.632 31.5609C114.248 31.7225 114.882 31.8047 115.519 31.8054C116.12 31.8068 116.721 31.7671 117.317 31.6867C117.877 31.6127 118.433 31.5071 118.981 31.3703C119.517 31.2373 120.042 31.0827 120.549 30.903C121.056 30.7232 121.574 30.5435 122.095 30.3421L124.424 34.6851C123.619 35.1812 122.882 35.6019 122.213 35.947C121.562 36.2843 120.885 36.5704 120.189 36.8027C119.487 37.0342 118.765 37.2014 118.032 37.3024C117.146 37.4148 116.254 37.4677 115.361 37.4606C113.62 37.4923 111.891 37.1719 110.277 36.5186C108.88 35.9492 107.62 35.0897 106.579 33.9971C105.539 32.9046 104.742 31.6036 104.241 30.1803C103.708 28.7138 103.439 27.1642 103.447 25.6037C103.436 24.053 103.72 22.5145 104.284 21.0702C104.817 19.6882 105.623 18.428 106.655 17.3654C107.687 16.3028 108.923 15.4596 110.288 14.8864C111.779 14.2732 113.379 13.9722 114.991 14.002C116.562 13.9732 118.123 14.2656 119.578 14.8613C120.863 15.3979 122.016 16.2075 122.958 17.2341C123.891 18.2697 124.61 19.4792 125.075 20.7933C125.579 22.2059 125.851 23.6907 125.881 25.1902C125.923 25.5375 125.948 25.8866 125.956 26.2364C125.956 26.5959 125.956 26.9555 125.924 27.315L109.756 27.3042ZM114.818 19.2941C114.133 19.2791 113.451 19.3762 112.798 19.5817C112.281 19.7486 111.803 20.0149 111.388 20.3655C111.018 20.6804 110.708 21.0606 110.475 21.4872C110.249 21.9105 110.072 22.3579 109.947 22.821H119.118C119.023 22.3563 118.883 21.9022 118.697 21.4656C118.516 21.0465 118.256 20.6658 117.932 20.3439C117.579 20.0016 117.157 19.7382 116.695 19.571C116.093 19.3641 115.458 19.2667 114.822 19.2833L114.818 19.2941Z" fill="#EAEAEA"/>
<path d="M142.681 35.2481C142.185 35.5573 141.732 35.8233 141.325 36.0426C140.932 36.2499 140.52 36.422 140.096 36.5568C139.681 36.6933 139.255 36.7932 138.823 36.8552C138.347 36.9194 137.866 36.9507 137.385 36.9486C136.188 36.9666 134.996 36.7843 133.858 36.4094C132.896 36.0907 132.004 35.5876 131.234 34.9281C130.53 34.3151 129.97 33.5555 129.591 32.7027C129.21 31.8175 129.014 30.8639 129.014 29.9003C129.014 28.9366 129.21 27.9831 129.591 27.0978C129.976 26.2424 130.552 25.4862 131.273 24.8868C132.074 24.2381 132.992 23.7498 133.977 23.4487C135.16 23.0863 136.392 22.9116 137.63 22.931C138.546 22.9247 139.463 22.9775 140.373 23.0892C141.2 23.1935 141.965 23.3265 142.674 23.4811V22.8124C142.687 22.314 142.577 21.8201 142.354 21.3743C142.146 20.975 141.844 20.6329 141.473 20.3784C141.054 20.1011 140.587 19.9058 140.096 19.8032C139.518 19.6798 138.929 19.6195 138.338 19.6235C137.157 19.6085 135.98 19.7413 134.833 20.0189C133.819 20.2821 132.841 20.6634 131.917 21.155L129.889 17.0529C131.282 16.0864 132.804 15.3226 134.412 14.7843C136.028 14.2556 137.719 13.9909 139.42 14.0006C140.702 13.9892 141.981 14.1427 143.224 14.4572C144.319 14.726 145.343 15.2316 146.222 15.9384C147.081 16.662 147.753 17.5819 148.181 18.6204C148.69 19.8993 148.934 21.2677 148.9 22.6434V30.6283H151.82V36.4345H142.681V35.2481ZM137.849 31.9657C138.783 31.9788 139.71 31.8129 140.581 31.4768C141.337 31.1891 142.045 30.7891 142.681 30.2904V27.4933H137.594C137.27 27.4934 136.949 27.5443 136.641 27.6443C136.34 27.7368 136.057 27.879 135.803 28.0649C135.561 28.2475 135.36 28.479 135.214 28.7444C135.06 29.0302 134.983 29.3511 134.991 29.6756C134.985 29.9835 135.047 30.2888 135.171 30.5706C135.295 30.8524 135.479 31.1039 135.71 31.3078C136.177 31.7464 136.89 31.9657 137.849 31.9657Z" fill="#EAEAEA"/>
<path d="M164.582 14.3912H168.968V19.9385H164.542L164.499 29.2177C164.49 29.6561 164.532 30.0942 164.625 30.5227C164.686 30.8093 164.809 31.0792 164.985 31.3137C165.132 31.5049 165.336 31.6456 165.567 31.7163C165.821 31.7921 166.086 31.8284 166.351 31.8242C166.829 31.8303 167.306 31.7771 167.771 31.666C168.181 31.5582 168.591 31.4359 169 31.3065L169.921 35.3798C169.171 35.8464 168.362 36.2093 167.516 36.4584C166.492 36.7463 165.432 36.882 164.37 36.861C163.528 36.8642 162.692 36.7144 161.903 36.4188C161.125 36.1243 160.42 35.6643 159.836 35.0706C159.215 34.4243 158.732 33.657 158.42 32.8165C158.047 31.8073 157.873 30.7352 157.909 29.6599L157.974 19.9529H154.817V14.3912H157.996L158.039 9.135L164.625 6L164.582 14.3912Z" fill="#EAEAEA"/>
<path d="M186.922 19.8277C186.672 19.4883 186.347 19.2104 185.973 19.0152C185.481 18.7574 184.956 18.5675 184.413 18.4508C183.728 18.3023 183.029 18.2312 182.328 18.2386C182.009 18.2404 181.69 18.2657 181.375 18.3141C181.05 18.3592 180.733 18.4487 180.433 18.5802C180.157 18.6963 179.912 18.8732 179.714 19.0979C179.519 19.3324 179.418 19.6308 179.43 19.9356C179.429 20.1003 179.455 20.2641 179.505 20.4209C179.562 20.5908 179.659 20.744 179.789 20.8667C179.96 21.0291 180.157 21.1615 180.372 21.2586C180.679 21.3977 181.003 21.4945 181.335 21.5462L185.319 22.33C186.561 22.5518 187.776 22.9062 188.943 23.3869C189.807 23.7413 190.603 24.2438 191.294 24.8718C191.857 25.3958 192.294 26.0397 192.574 26.7556C192.84 27.4745 192.973 28.236 192.966 29.0026C192.993 30.1653 192.687 31.3115 192.085 32.3066C191.498 33.2534 190.71 34.0597 189.777 34.6686C188.789 35.3191 187.703 35.8048 186.559 36.1067C185.381 36.4211 184.166 36.5806 182.946 36.5813C182.224 36.586 181.503 36.5367 180.789 36.4339C180.2 36.3483 179.619 36.2136 179.052 36.0312C178.574 35.8788 178.112 35.6763 177.676 35.4272C177.283 35.2013 176.91 34.9428 176.561 34.6542H172.718V28.7474H178.715V28.8732C178.717 29.2652 178.851 29.645 179.096 29.9517C179.354 30.2707 179.674 30.5337 180.038 30.7247C180.453 30.9467 180.899 31.1078 181.361 31.2029C181.876 31.31 182.402 31.363 182.928 31.3611C184.201 31.3611 185.126 31.1945 185.704 30.8613C185.918 30.7678 186.106 30.6235 186.251 30.441C186.397 30.2585 186.496 30.0433 186.54 29.8139C186.584 29.5845 186.571 29.3479 186.503 29.1245C186.435 28.9011 186.314 28.6976 186.149 28.5317C185.718 28.1716 185.198 27.9344 184.643 27.845L180.58 26.9677C178.023 26.474 176.095 25.6519 174.796 24.5015C174.163 23.9515 173.66 23.268 173.323 22.5002C172.986 21.7325 172.823 20.8995 172.847 20.0614C172.838 19.0539 173.095 18.0618 173.591 17.1853C174.09 16.3024 174.775 15.5382 175.598 14.9455C176.502 14.3021 177.508 13.8159 178.574 13.5074C179.762 13.1622 180.994 12.9914 182.231 13.0005C183.023 12.9944 183.815 13.0473 184.6 13.1587C185.231 13.2519 185.854 13.39 186.466 13.5721C186.965 13.7225 187.447 13.925 187.904 14.1761C188.292 14.3878 188.663 14.6281 189.015 14.8951H192.7V20.802H187.235C187.236 20.4525 187.126 20.1117 186.922 19.8277Z" fill="#EAEAEA"/>
<path d="M56.2852 31.2578H59.3516V12.1758H55.7578V16.0039H49.3906V7H76.3242V16.0039H69.918V12.1758H65.8359V31.2578H68.9609V36.6094H56.2852V31.2578Z" fill="#EAEAEA"/>
<defs>
<linearGradient id="paint0_linear" x1="10.2105" y1="39.4902" x2="38.4902" y2="11.2105" gradientUnits="userSpaceOnUse">
<stop stop-color="#0000FF"/>
<stop offset="0.09" stop-color="#000EFF"/>
<stop offset="0.27" stop-color="#0033FF"/>
<stop offset="0.5" stop-color="#006FFF"/>
<stop offset="0.79" stop-color="#00C0FF"/>
<stop offset="1" stop-color="#00FFFF"/>
</linearGradient>
<linearGradient id="paint1_linear" x1="20.378" y1="32.3894" x2="20.378" y2="0.999855" gradientUnits="userSpaceOnUse">
<stop stop-color="#662D91"/>
<stop offset="0.15" stop-color="#4A66AF" stop-opacity="0.73"/>
<stop offset="0.33" stop-color="#309DCC" stop-opacity="0.47"/>
<stop offset="0.5" stop-color="#1BC8E2" stop-opacity="0.26"/>
<stop offset="0.67" stop-color="#0CE6F2" stop-opacity="0.12"/>
<stop offset="0.84" stop-color="#03F9FC" stop-opacity="0.03"/>
<stop offset="1" stop-color="#00FFFF" stop-opacity="0"/>
</linearGradient>
<linearGradient id="paint2_linear" x1="8.15397" y1="14.5143" x2="39.9893" y2="14.5143" gradientUnits="userSpaceOnUse">
<stop/>
<stop offset="1" stop-opacity="0"/>
</linearGradient>
<linearGradient id="paint3_linear" x1="30.1596" y1="27.5318" x2="30.1596" y2="8.88719" gradientUnits="userSpaceOnUse">
<stop stop-opacity="0"/>
<stop offset="1"/>
</linearGradient>
</defs>
</svg>
