<svg width="488" height="350" viewBox="0 0 488 350" fill="none" xmlns="http://www.w3.org/2000/svg">
<path opacity="0.4" d="M577.84 204.483C539.601 251.831 459.871 282.66 399.651 273.164C339.43 263.799 321.741 217.621 359.981 170.272C398.22 122.924 477.95 92.0952 538.17 101.591C598.26 110.957 616.079 157.134 577.84 204.483Z" fill="url(#paint0_radial)"/>
<path opacity="0.4" d="M239.02 266.27C200.781 313.619 121.05 344.447 60.8302 334.952C0.609946 325.586 -17.0789 279.408 21.1603 232.06C59.3995 184.711 139.13 153.882 199.35 163.378C259.57 172.744 277.259 218.922 239.02 266.27Z" fill="url(#paint1_radial)"/>
<path opacity="0.6" d="M242.401 347.699L101.8 266.4C98.4182 264.449 98.8083 261.067 102.71 258.856L388.724 93.6561C392.626 91.4447 398.479 91.1846 401.861 93.1358L542.461 174.305C545.843 176.256 545.453 179.638 541.551 181.849L255.537 347.049C251.635 349.39 245.782 349.65 242.401 347.699Z" fill="#0C0F38"/>
<path d="M544.672 144.647L537.518 148.939L401.73 70.6322C398.348 68.681 392.495 68.9412 388.593 71.1525L107.262 233.751L99.5879 230.368V240.905C99.5879 242.076 100.368 243.116 101.799 244.027L242.4 325.196C245.781 327.147 251.634 326.887 255.536 324.675L541.55 159.476C543.761 158.175 544.802 156.614 544.802 155.053V144.647H544.672Z" fill="url(#paint2_linear)"/>
<path d="M107.262 233.75L99.5879 230.368V240.905C99.5879 242.076 100.368 243.116 101.799 244.027L102.059 244.157C101.669 243.636 101.409 242.986 101.409 242.336V231.799L109.083 235.181L120.008 228.938C119.488 228.287 118.968 227.767 118.447 227.247L107.262 233.75Z" fill="#1044B1"/>
<path d="M537.518 149.069L470.925 110.566C470.274 110.957 469.624 111.477 468.844 111.867L535.697 150.5L542.851 146.208V156.484C542.851 157.395 542.461 158.435 541.55 159.346C543.631 158.045 544.672 156.484 544.542 155.053V144.777L537.518 149.069Z" fill="#6EE8FC"/>
<path d="M242.401 314.659L101.8 233.49C98.4182 231.539 98.8083 228.157 102.71 225.945L388.724 60.7458C392.626 58.5345 398.479 58.2743 401.861 60.2255L542.461 141.394C545.843 143.346 545.453 146.728 541.551 148.939L255.537 314.139C251.635 316.35 245.782 316.61 242.401 314.659Z" fill="url(#paint3_linear)"/>
<path d="M244.351 314.659L103.751 233.49C100.369 231.539 100.759 228.157 104.661 225.946L390.675 60.7462C392.496 59.7056 394.837 59.0552 397.178 58.9251C394.317 58.7951 391.195 59.3154 388.724 60.7462L102.71 225.946C98.8083 228.157 98.4182 231.539 101.8 233.49L242.401 314.659C244.091 315.7 246.563 316.09 249.034 315.96C247.213 315.83 245.652 315.44 244.351 314.659Z" fill="#1044B1"/>
<path d="M542.462 141.525L401.731 60.2259C400.04 59.1853 397.569 58.7951 395.098 58.9251C396.918 59.0552 398.479 59.4455 399.78 60.2259L540.381 141.395C543.762 143.346 543.372 146.728 539.47 148.939L253.456 314.139C251.635 315.18 249.294 315.83 246.953 315.96C249.815 316.09 252.936 315.57 255.277 314.139L541.291 148.939C545.323 146.728 545.843 143.346 542.462 141.525Z" fill="#6EE8FC"/>
<path d="M258.399 309.716L110.385 224.255L384.042 66.2095L532.057 151.671L258.399 309.716Z" fill="url(#paint4_radial)"/>
<path d="M273.617 280.319L161.24 215.539L368.825 95.6072L481.331 160.516L273.617 280.319Z" fill="url(#paint5_linear)"/>
<path d="M471.836 110.306L455.838 101.071C455.187 100.68 455.317 100.16 455.968 99.7698C456.618 99.3795 457.659 99.3795 458.309 99.6397L474.307 108.875C474.957 109.265 474.827 109.786 474.177 110.176C473.397 110.566 472.356 110.566 471.836 110.306Z" fill="url(#paint6_radial)"/>
<path opacity="0.8" d="M234.727 122.533C234.727 122.533 241.62 46.6977 256.317 55.1528C271.015 63.6079 263.861 107.705 279.209 116.42C294.166 125.135 286.102 -9.23598 308.734 3.90194C324.992 13.2676 319.789 115.249 334.357 123.704C350.615 133.07 345.932 94.6967 360.5 96.3877C368.824 97.4283 373.116 122.273 384.952 127.997C396.658 133.59 391.065 25.495 409.664 36.2915C428.524 47.2181 433.987 237.523 433.987 237.523L234.727 122.533Z" fill="#6EE1F8"/>
<path d="M256.97 54.5025C256.97 56.1935 255.539 57.6244 253.848 57.6244C252.157 57.6244 250.727 56.1935 250.727 54.5025C250.727 52.8115 252.157 51.3806 253.848 51.3806C255.539 51.3806 256.97 52.6814 256.97 54.5025Z" fill="white"/>
<path d="M308.735 3.12152C308.735 4.81253 307.305 6.2434 305.614 6.2434C303.923 6.2434 302.492 4.81253 302.492 3.12152C302.492 1.4305 303.923 -0.000366211 305.614 -0.000366211C307.305 -0.000366211 308.735 1.30042 308.735 3.12152Z" fill="white"/>
<path d="M363.103 96.2576C363.103 97.9486 361.672 99.3795 359.981 99.3795C358.29 99.3795 356.859 97.9486 356.859 96.2576C356.859 94.5666 358.29 93.1357 359.981 93.1357C361.672 93.1357 363.103 94.5666 363.103 96.2576Z" fill="white"/>
<path d="M410.187 35.2509C410.187 36.9419 408.756 38.3728 407.065 38.3728C405.374 38.3728 403.943 36.9419 403.943 35.2509C403.943 33.5599 405.374 32.129 407.065 32.129C408.756 32.129 410.187 33.5599 410.187 35.2509Z" fill="white"/>
<path opacity="0.8" d="M189.074 145.037C189.074 145.037 194.147 69.7216 205.202 76.0955C216.128 82.4693 210.925 126.566 222.241 133.2C233.427 139.704 227.313 23.8039 244.222 33.5598C256.318 40.5841 252.546 79.3474 263.342 85.5912C275.568 92.6154 273.357 73.3638 282.851 78.8271C292.216 84.2904 292.346 108.745 301.06 112.778C309.905 116.68 305.613 28.877 319.53 36.9419C333.577 45.0067 337.609 231.019 337.609 231.019L189.074 145.037Z" fill="#1044B1"/>
<path d="M207.415 75.7053C207.415 77.3963 205.984 78.8271 204.293 78.8271C202.603 78.8271 201.172 77.3963 201.172 75.7053C201.172 74.0142 202.603 72.5834 204.293 72.5834C205.984 72.5834 207.415 74.0142 207.415 75.7053Z" fill="white"/>
<path d="M245.522 32.9095C245.522 34.6005 244.092 36.0314 242.401 36.0314C240.71 36.0314 239.279 34.6005 239.279 32.9095C239.279 31.2185 240.71 29.7876 242.401 29.7876C244.092 29.7876 245.522 31.2185 245.522 32.9095Z" fill="white"/>
<path d="M282.981 77.9166C282.981 79.6076 281.551 81.0384 279.86 81.0384C278.169 81.0384 276.738 79.6076 276.738 77.9166C276.738 76.2255 278.169 74.7947 279.86 74.7947C281.551 74.7947 282.981 76.2255 282.981 77.9166Z" fill="white"/>
<path d="M320.7 36.5517C320.7 38.2427 319.269 39.6736 317.579 39.6736C315.888 39.6736 314.457 38.2427 314.457 36.5517C314.457 34.8607 315.888 33.4298 317.579 33.4298C319.4 33.4298 320.7 34.8607 320.7 36.5517Z" fill="white"/>
<defs>
<radialGradient id="paint0_radial" cx="0" cy="0" r="1" gradientUnits="userSpaceOnUse" gradientTransform="translate(468.88 187.402) rotate(8.90648) scale(110.259 95.5015)">
<stop offset="0.0107527" stop-color="#25BFEC"/>
<stop offset="0.0453451" stop-color="#24B4E1"/>
<stop offset="0.2186" stop-color="#1F83B0"/>
<stop offset="0.3902" stop-color="#1B5A86"/>
<stop offset="0.734375" stop-color="#173A66" stop-opacity="0.3"/>
<stop offset="1" stop-color="#13113D" stop-opacity="0"/>
</radialGradient>
<radialGradient id="paint1_radial" cx="0" cy="0" r="1" gradientUnits="userSpaceOnUse" gradientTransform="translate(130.097 249.189) rotate(8.90648) scale(110.259 95.5015)">
<stop offset="0.0107527" stop-color="#1043A9"/>
<stop offset="0.4224" stop-color="#1141A8" stop-opacity="0.31"/>
<stop offset="1" stop-color="#1141A8" stop-opacity="0"/>
</radialGradient>
<linearGradient id="paint2_linear" x1="10.2564" y1="197.85" x2="654.784" y2="197.85" gradientUnits="userSpaceOnUse">
<stop stop-color="#012EFF"/>
<stop offset="0.1651" stop-color="#225BBB"/>
<stop offset="0.4284" stop-color="#205CBA"/>
<stop offset="0.7551" stop-color="#4958CD"/>
<stop offset="1" stop-color="#2979E4"/>
</linearGradient>
<linearGradient id="paint3_linear" x1="245.696" y1="143.354" x2="322.12" y2="275.699" gradientUnits="userSpaceOnUse">
<stop stop-color="#0112FF"/>
<stop offset="0.1651" stop-color="#205CBA"/>
<stop offset="0.4284" stop-color="#214EB4"/>
<stop offset="0.7551" stop-color="#4958CD"/>
<stop offset="1" stop-color="#2979E4"/>
</linearGradient>
<radialGradient id="paint4_radial" cx="0" cy="0" r="1" gradientUnits="userSpaceOnUse" gradientTransform="translate(173.234 88.273) rotate(30.0012) scale(340.877 376.09)">
<stop offset="0.0107527" stop-color="#2C35A2"/>
<stop offset="0.1635" stop-color="#252C88"/>
<stop offset="0.3975" stop-color="#1B2167"/>
<stop offset="0.621" stop-color="#15194F"/>
<stop offset="0.8273" stop-color="#101540"/>
<stop offset="1" stop-color="#0F133B"/>
</radialGradient>
<linearGradient id="paint5_linear" x1="161.197" y1="187.971" x2="481.275" y2="187.971" gradientUnits="userSpaceOnUse">
<stop stop-color="#2F046B"/>
<stop offset="0.0667915" stop-color="#2F046B"/>
<stop offset="0.182292" stop-color="#231C78"/>
<stop offset="0.614483" stop-color="#00629E"/>
<stop offset="0.614583" stop-color="#00629E"/>
<stop offset="0.9436" stop-color="#3168DA"/>
<stop offset="1" stop-color="#2C75E4"/>
</linearGradient>
<radialGradient id="paint6_radial" cx="0" cy="0" r="1" gradientUnits="userSpaceOnUse" gradientTransform="translate(459.553 101.839) rotate(30.0033) scale(16.6868 14.4521)">
<stop offset="0.0107527" stop-color="#2C35A2"/>
<stop offset="0.1635" stop-color="#252C88"/>
<stop offset="0.3975" stop-color="#1B2167"/>
<stop offset="0.621" stop-color="#15194F"/>
<stop offset="0.8273" stop-color="#101540"/>
<stop offset="1" stop-color="#0F133B"/>
</radialGradient>
</defs>
</svg>
