<svg width="18" height="22" viewBox="0 0 18 22" fill="none" xmlns="http://www.w3.org/2000/svg">
<path d="M9.03057 0.599976C8.32257 0.599976 7.64038 0.837413 7.08838 1.27341C6.92598 1.24781 6.76096 1.23591 6.59776 1.23591C5.30416 1.23591 4.15653 2.02131 3.68213 3.21091C2.30693 3.73571 1.48576 5.13616 1.69776 6.59216C0.771355 7.73456 0.761555 9.35651 1.67276 10.5109C1.44156 11.9629 2.24229 13.3747 3.60869 13.9187C3.87563 14.6164 4.37646 15.1704 4.99932 15.5218V20.6C4.99932 20.8121 5.0836 21.0156 5.23363 21.1657C5.38366 21.3157 5.58715 21.4 5.79932 21.4C6.00463 21.4 6.20211 21.3212 6.35088 21.1797C6.35298 21.1776 6.35506 21.1755 6.35713 21.1734L8.99932 19L11.6478 21.1797C11.6483 21.1797 11.6488 21.1797 11.6493 21.1797C11.7977 21.3208 11.9945 21.3996 12.1993 21.4C12.4115 21.4 12.615 21.3157 12.765 21.1657C12.915 21.0156 12.9993 20.8121 12.9993 20.6V15.5187C13.5831 15.1723 14.0546 14.6454 14.3165 13.989C15.6909 13.4634 16.5129 12.063 16.3009 10.6078C17.2273 9.46539 17.2371 7.84344 16.3259 6.68904C16.5571 5.23704 15.7548 3.82523 14.3884 3.28123C13.9244 2.06843 12.7699 1.2656 11.4571 1.2656C11.3067 1.2656 11.1567 1.27681 11.0071 1.29841C10.4495 0.846413 9.75377 0.599976 9.03057 0.599976ZM9.03057 2.19998C9.40417 2.19998 9.77836 2.33506 10.0728 2.60466L10.5321 3.02498L11.1415 2.89841C11.2471 2.87681 11.3531 2.8656 11.4571 2.8656C12.1171 2.8656 12.7203 3.29249 12.9259 3.94529L13.1134 4.53904L13.7056 4.73435C14.4576 4.98235 14.8986 5.75843 14.7274 6.53123L14.5931 7.1406L15.0087 7.60466C15.5359 8.19506 15.529 9.08941 14.9946 9.67341L14.5743 10.1312L14.7024 10.7422C14.864 11.5174 14.4108 12.2874 13.6556 12.525L13.0603 12.7125L12.8649 13.3047C12.6529 13.9471 12.0544 14.364 11.4024 14.364C11.292 14.364 11.1809 14.3513 11.0681 14.3265L10.4587 14.1922L9.99463 14.6078C9.70103 14.8702 9.33447 15 8.96807 15C8.59447 15 8.22028 14.8649 7.92588 14.5953L7.46651 14.175L6.85713 14.3015C6.75153 14.3231 6.64551 14.3343 6.54151 14.3343C5.88151 14.3343 5.27836 13.9075 5.07276 13.2547L4.88526 12.6609L4.29307 12.4656C3.54107 12.2176 3.09999 11.4415 3.27119 10.6687L3.40557 10.0594L2.99151 9.59373C2.46431 9.00333 2.46961 8.11054 3.00401 7.52654L3.42432 7.06716L3.29776 6.45623C3.13616 5.68103 3.58943 4.91101 4.34463 4.67341L4.93994 4.48591L5.13526 3.89373C5.34726 3.25133 5.94576 2.83435 6.59776 2.83435C6.70816 2.83435 6.82089 2.84705 6.93369 2.87185L7.54151 3.00623L8.00557 2.5906C8.29757 2.3298 8.66417 2.19998 9.03057 2.19998ZM8.99932 4.59998C7.93845 4.59998 6.92104 5.0214 6.17089 5.77155C5.42075 6.52169 4.99932 7.53911 4.99932 8.59998C4.99932 9.66084 5.42075 10.6783 6.17089 11.4284C6.92104 12.1785 7.93845 12.6 8.99932 12.6C10.0602 12.6 11.0776 12.1785 11.8277 11.4284C12.5779 10.6783 12.9993 9.66084 12.9993 8.59998C12.9993 7.53911 12.5779 6.52169 11.8277 5.77155C11.0776 5.0214 10.0602 4.59998 8.99932 4.59998Z" fill="white"/>
</svg>
