<svg width="26" height="26" viewBox="0 0 26 26" fill="none" xmlns="http://www.w3.org/2000/svg">
<path d="M12.9996 0.600098C6.16229 0.600098 0.599609 6.16278 0.599609 13.0001C0.599609 19.8374 6.16229 25.4001 12.9996 25.4001C19.8369 25.4001 25.3996 19.8374 25.3996 13.0001C25.3996 6.16278 19.8369 0.600098 12.9996 0.600098ZM12.9996 2.4601C18.8317 2.4601 23.5396 7.168 23.5396 13.0001C23.5396 18.8322 18.8317 23.5401 12.9996 23.5401C7.16751 23.5401 2.45961 18.8322 2.45961 13.0001C2.45961 7.168 7.16751 2.4601 12.9996 2.4601ZM17.6314 9.27162C17.3899 9.27866 17.1606 9.37942 16.9921 9.55256L11.4496 15.095L9.00715 12.6526C8.92145 12.5633 8.81881 12.492 8.70523 12.443C8.59165 12.3939 8.46942 12.3679 8.34569 12.3667C8.22197 12.3654 8.09923 12.3889 7.98468 12.4356C7.87013 12.4824 7.76606 12.5516 7.67856 12.639C7.59107 12.7265 7.52192 12.8306 7.47515 12.9452C7.42838 13.0597 7.40494 13.1825 7.40619 13.3062C7.40745 13.4299 7.43338 13.5521 7.48247 13.6657C7.53156 13.7793 7.60282 13.8819 7.69207 13.9676L10.7921 17.0676C10.9665 17.242 11.203 17.3399 11.4496 17.3399C11.6962 17.3399 11.9327 17.242 12.1071 17.0676L18.3071 10.8676C18.4413 10.737 18.5329 10.5688 18.5699 10.3853C18.607 10.2017 18.5877 10.0112 18.5147 9.83871C18.4417 9.66625 18.3183 9.51985 18.1607 9.41866C18.0031 9.31748 17.8187 9.26623 17.6314 9.27162Z" fill="#98FEFE"/>
</svg>
