<svg width="1626" height="805" viewBox="0 0 1626 805" fill="none" xmlns="http://www.w3.org/2000/svg">
<path d="M1320.48 731.534C1322.06 731.534 1323.33 730.257 1323.33 728.681C1323.33 727.106 1322.06 725.829 1320.48 725.829C1318.91 725.829 1317.63 727.106 1317.63 728.681C1317.63 730.257 1318.91 731.534 1320.48 731.534Z" fill="#F5FAFF" fill-opacity="0.5"/>
<path d="M17.3652 586.641C18.9401 586.641 20.2167 585.364 20.2167 583.789C20.2167 582.214 18.9401 580.937 17.3652 580.937C15.7903 580.937 14.5137 582.214 14.5137 583.789C14.5137 585.364 15.7903 586.641 17.3652 586.641Z" fill="#F5FAFF" fill-opacity="0.5"/>
<path d="M197.639 490.18C199.213 490.18 200.49 488.903 200.49 487.328C200.49 485.752 199.213 484.475 197.639 484.475C196.064 484.475 194.787 485.752 194.787 487.328C194.787 488.903 196.064 490.18 197.639 490.18Z" fill="#F5FAFF" fill-opacity="0.5"/>
<path d="M395.363 21.6767C396.938 21.6767 398.215 20.3997 398.215 18.8245C398.215 17.2493 396.938 15.9723 395.363 15.9723C393.788 15.9723 392.512 17.2493 392.512 18.8245C392.512 20.3997 393.788 21.6767 395.363 21.6767Z" fill="#F5FAFF" fill-opacity="0.5"/>
<path d="M1470.99 335.02C1472.56 335.02 1473.84 333.743 1473.84 332.168C1473.84 330.593 1472.56 329.316 1470.99 329.316C1469.41 329.316 1468.13 330.593 1468.13 332.168C1468.13 333.743 1469.41 335.02 1470.99 335.02Z" fill="#F5FAFF" fill-opacity="0.5"/>
<path d="M614.845 628.454C616.42 628.454 617.696 627.177 617.696 625.602C617.696 624.027 616.42 622.75 614.845 622.75C613.27 622.75 611.993 624.027 611.993 625.602C611.993 627.177 613.27 628.454 614.845 628.454Z" fill="#F5FAFF" fill-opacity="0.5"/>
<path d="M1336.14 156.9C1337.71 156.9 1338.99 155.623 1338.99 154.048C1338.99 152.472 1337.71 151.195 1336.14 151.195C1334.56 151.195 1333.29 152.472 1333.29 154.048C1333.29 155.623 1334.56 156.9 1336.14 156.9Z" fill="#F5FAFF" fill-opacity="0.5"/>
<path d="M582.195 267.423C582.983 267.423 583.621 266.784 583.621 265.997C583.621 265.209 582.983 264.57 582.195 264.57C581.408 264.57 580.77 265.209 580.77 265.997C580.77 266.784 581.408 267.423 582.195 267.423Z" fill="#F5FAFF" fill-opacity="0.5"/>
<path d="M1038.35 176.352C1039.14 176.352 1039.78 175.713 1039.78 174.926C1039.78 174.138 1039.14 173.5 1038.35 173.5C1037.57 173.5 1036.93 174.138 1036.93 174.926C1036.93 175.713 1037.57 176.352 1038.35 176.352Z" fill="#F5FAFF" fill-opacity="0.5"/>
<path d="M991.359 2.8522C992.147 2.8522 992.785 2.21372 992.785 1.4261C992.785 0.638487 992.147 0 991.359 0C990.572 0 989.934 0.638487 989.934 1.4261C989.934 2.21372 990.572 2.8522 991.359 2.8522Z" fill="#F5FAFF" fill-opacity="0.5"/>
<path d="M1363.46 496.398C1364.24 496.398 1364.88 495.759 1364.88 494.971C1364.88 494.184 1364.24 493.545 1363.46 493.545C1362.67 493.545 1362.03 494.184 1362.03 494.971C1362.03 495.759 1362.67 496.398 1363.46 496.398Z" fill="#F5FAFF" fill-opacity="0.5"/>
<path d="M974.564 807.459C975.352 807.459 975.99 806.82 975.99 806.033C975.99 805.245 975.352 804.607 974.564 804.607C973.777 804.607 973.139 805.245 973.139 806.033C973.139 806.82 973.777 807.459 974.564 807.459Z" fill="#F5FAFF" fill-opacity="0.5"/>
<path d="M624.283 760.797C625.071 760.797 625.709 760.158 625.709 759.371C625.709 758.583 625.071 757.945 624.283 757.945C623.496 757.945 622.857 758.583 622.857 759.371C622.857 760.158 623.496 760.797 624.283 760.797Z" fill="#F5FAFF" fill-opacity="0.5"/>
<path d="M451.795 413.227C452.582 413.227 453.221 412.589 453.221 411.801C453.221 411.014 452.582 410.375 451.795 410.375C451.007 410.375 450.369 411.014 450.369 411.801C450.369 412.589 451.007 413.227 451.795 413.227Z" fill="#F5FAFF" fill-opacity="0.5"/>
<path d="M293.535 285.534C294.323 285.534 294.961 284.896 294.961 284.108C294.961 283.32 294.323 282.682 293.535 282.682C292.748 282.682 292.109 283.32 292.109 284.108C292.109 284.896 292.748 285.534 293.535 285.534Z" fill="#F5FAFF" fill-opacity="0.5"/>
<path d="M2.85153 119.194C4.42639 119.194 5.70306 117.917 5.70306 116.341C5.70306 114.766 4.42639 113.489 2.85153 113.489C1.27667 113.489 0 114.766 0 116.341C0 117.917 1.27667 119.194 2.85153 119.194Z" fill="#F5FAFF" fill-opacity="0.5"/>
<path d="M988.283 623.797C989.071 623.797 989.709 623.158 989.709 622.371C989.709 621.583 989.071 620.945 988.283 620.945C987.496 620.945 986.857 621.583 986.857 622.371C986.857 623.158 987.496 623.797 988.283 623.797Z" fill="#F5FAFF" fill-opacity="0.5"/>
<path d="M845.795 306.227C846.582 306.227 847.221 305.589 847.221 304.801C847.221 304.014 846.582 303.375 845.795 303.375C845.007 303.375 844.369 304.014 844.369 304.801C844.369 305.589 845.007 306.227 845.795 306.227Z" fill="#F5FAFF" fill-opacity="0.5"/>
<path d="M657.535 148.534C658.323 148.534 658.961 147.896 658.961 147.108C658.961 146.32 658.323 145.682 657.535 145.682C656.748 145.682 656.109 146.32 656.109 147.108C656.109 147.896 656.748 148.534 657.535 148.534Z" fill="#F5FAFF" fill-opacity="0.5"/>
<path d="M1623.02 483.39C1624.59 483.39 1625.87 482.113 1625.87 480.538C1625.87 478.962 1624.59 477.685 1623.02 477.685C1621.44 477.685 1620.16 478.962 1620.16 480.538C1620.16 482.113 1621.44 483.39 1623.02 483.39Z" fill="#F5FAFF" fill-opacity="0.5"/>
<path d="M366.852 182.194C368.426 182.194 369.703 180.917 369.703 179.341C369.703 177.766 368.426 176.489 366.852 176.489C365.277 176.489 364 177.766 364 179.341C364 180.917 365.277 182.194 366.852 182.194Z" fill="#F5FAFF" fill-opacity="0.5"/>
<path d="M814.369 754.998C815.944 754.998 817.221 753.721 817.221 752.146C817.221 750.571 815.944 749.294 814.369 749.294C812.794 749.294 811.518 750.571 811.518 752.146C811.518 753.721 812.794 754.998 814.369 754.998Z" fill="#F5FAFF" fill-opacity="0.5"/>
</svg>
