<svg width="47" height="47" viewBox="0 0 47 47" fill="none" xmlns="http://www.w3.org/2000/svg">
<path d="M23.5 47C36.4787 47 47 36.4787 47 23.5C47 10.5213 36.4787 0 23.5 0C10.5213 0 0 10.5213 0 23.5C0 36.4787 10.5213 47 23.5 47Z" fill="#039BE5"/>
<path d="M10.7531 22.9908L33.411 14.2547C34.4627 13.8747 35.3811 14.5112 35.0404 16.1014L35.0423 16.0994L31.1844 34.2747C30.8985 35.5633 30.1328 35.8766 29.0616 35.2695L23.1866 30.9397L20.3529 33.6696C20.0395 33.9829 19.7752 34.2473 19.1681 34.2473L19.5852 28.2685L30.4735 18.4318C30.9474 18.0147 30.3678 17.7797 29.7431 18.1948L16.2874 26.6666L10.4868 24.8571C9.22757 24.4576 9.20015 23.5979 10.7531 22.9908Z" fill="white"/>
</svg>
