<svg width="38" height="38" viewBox="0 0 38 38" fill="none" xmlns="http://www.w3.org/2000/svg">
<rect x="1" y="1" width="36" height="36" rx="18" stroke="#2F046B" stroke-width="2"/>
<rect x="4" y="4" width="30" height="30" rx="15" fill="#2F046B"/>
<path d="M26.7782 23.2218C25.5801 22.0237 24.1541 21.1368 22.5982 20.5999C24.2646 19.4522 25.3594 17.5314 25.3594 15.3594C25.3594 11.8528 22.5066 9 19 9C15.4934 9 12.6406 11.8528 12.6406 15.3594C12.6406 17.5314 13.7354 19.4522 15.4019 20.5999C13.846 21.1368 12.4199 22.0237 11.2218 23.2218C9.14421 25.2995 8 28.0618 8 31H9.71875C9.71875 25.8823 13.8823 21.7188 19 21.7188C24.1177 21.7188 28.2812 25.8823 28.2812 31H30C30 28.0618 28.8558 25.2995 26.7782 23.2218ZM19 20C16.4412 20 14.3594 17.9183 14.3594 15.3594C14.3594 12.8005 16.4412 10.7188 19 10.7188C21.5588 10.7188 23.6406 12.8005 23.6406 15.3594C23.6406 17.9183 21.5588 20 19 20Z" fill="#98FEFE"/>
</svg>
