<svg width="50" height="50" viewBox="0 0 50 50" fill="none" xmlns="http://www.w3.org/2000/svg">
<g clip-path="url(#clip0)">
<path d="M42.6777 7.32238C37.9558 2.6004 31.6778 0 25.0001 0C18.3223 0 12.0442 2.6004 7.32238 7.32228C2.6004 12.0442 0 18.3223 0 25C0 31.6778 2.6004 37.9558 7.32238 42.6777C12.0442 47.3996 18.3223 50 25.0001 50C31.6779 50 37.9558 47.3996 42.6778 42.6776C47.3996 37.9558 50.0001 31.6777 50.0001 25C50.0001 18.3222 47.3996 12.0442 42.6777 7.32238ZM9.39611 9.39611C11.5945 7.19777 14.1752 5.52101 16.9881 4.42657C16.2389 5.36192 15.5378 6.43702 14.8953 7.64621C14.1491 9.05051 13.5053 10.5928 12.9691 12.2402C11.1114 11.9319 9.39025 11.5528 7.85256 11.1078C8.33449 10.5155 8.84865 9.94357 9.39611 9.39611ZM6.07706 13.6314C7.8756 14.2073 9.93244 14.6929 12.1768 15.0776C11.5518 17.7305 11.1839 20.5853 11.0961 23.5337H2.98204C3.21251 19.9954 4.2752 16.6184 6.07706 13.6314ZM5.9174 36.0975C4.2128 33.1777 3.20557 29.8982 2.98194 26.4664H11.1017C11.1976 29.3305 11.5581 32.1042 12.162 34.6877C9.8716 35.059 7.7631 35.5323 5.9174 36.0975ZM9.39611 40.604C8.77307 39.9808 8.19279 39.3265 7.6548 38.6455C9.24885 38.2035 11.0309 37.8292 12.9491 37.529C13.4892 39.1992 14.14 40.7619 14.8952 42.1835C15.5954 43.5012 16.3653 44.659 17.1911 45.6508C14.2995 44.5587 11.6473 42.855 9.39611 40.604ZM23.5336 46.691C21.3063 46.0671 19.1993 44.0331 17.4852 40.8073C16.8857 39.6792 16.3591 38.4484 15.908 37.1367C18.3231 36.8709 20.8929 36.7137 23.5336 36.6768V46.691ZM23.5336 33.7439C20.6051 33.7839 17.7507 33.9677 15.0776 34.2817C14.4879 31.8441 14.1331 29.2057 14.0358 26.4665H23.5337V33.7439H23.5336ZM23.5336 23.5336H14.0302C14.1192 20.7178 14.4796 18.0058 15.0876 15.5062C17.7437 15.8382 20.5921 16.0402 23.5336 16.098V23.5336ZM23.5336 13.1649C20.8827 13.1115 18.3185 12.9386 15.9205 12.6566C16.3689 11.3585 16.8913 10.1402 17.4852 9.02228C19.1992 5.7965 21.3063 3.76251 23.5336 3.13858V13.1649ZM44.0154 13.7871C45.7609 16.7357 46.7915 20.0566 47.0183 23.5336H38.9042C38.8174 20.6192 38.4565 17.7964 37.8446 15.1697C40.1037 14.8048 42.186 14.3407 44.0154 13.7871ZM40.6039 9.39611C41.1927 9.98488 41.7427 10.6021 42.2557 11.2428C40.686 11.6714 38.9381 12.0352 37.0599 12.328C36.5181 10.6475 35.8643 9.07551 35.1049 7.64621C34.4624 6.43702 33.7613 5.36192 33.0121 4.42657C35.8248 5.52101 38.4056 7.19777 40.6039 9.39611ZM26.4665 26.4665H35.9644C35.8664 29.227 35.5068 31.8854 34.9088 34.3387C32.2531 34.0086 29.4059 33.8085 26.4665 33.7522V26.4665ZM26.4665 23.5336V16.1077C29.3966 16.0693 32.2533 15.8869 34.929 15.5742C35.5271 18.0549 35.8817 20.7433 35.9699 23.5336H26.4665ZM26.4663 3.13858H26.4664C28.6937 3.76251 30.8007 5.7965 32.5148 9.02228C33.1181 10.1577 33.6477 11.3971 34.1008 12.7184C31.6825 12.9832 29.1097 13.1392 26.4663 13.1748V3.13858ZM26.4665 46.691V36.6853C29.1149 36.7373 31.6771 36.9086 34.0742 37.1888C33.627 38.481 33.1063 39.6941 32.5149 40.8073C30.8008 44.0331 28.6938 46.0671 26.4665 46.691ZM40.6039 40.604C38.3528 42.8551 35.7006 44.5587 32.8089 45.6507C33.6347 44.6589 34.4046 43.5012 35.1048 42.1835C35.8489 40.783 36.4913 39.2452 37.0266 37.6028C38.9275 37.9166 40.6861 38.3046 42.2527 38.7609C41.7407 39.4002 41.1916 40.0162 40.6039 40.604ZM44.0046 36.2314C42.1848 35.6464 40.0983 35.1541 37.8204 34.7656C38.4352 32.1601 38.8016 29.3593 38.8986 26.4665H47.0184C46.791 29.9506 45.7568 33.2783 44.0046 36.2314Z" fill="white"/>
</g>
<defs>
<clipPath id="clip0">
<rect width="50" height="50" fill="white"/>
</clipPath>
</defs>
</svg>
